<?xml version="1.0" encoding="ISO-8859-1" standalone="no"?>
<!DOCTYPE svg PUBLIC "-//W3C//DTD SVG 1.1//EN"
 "http://www.w3.org/Graphics/SVG/1.1/DTD/svg11.dtd">
<svg width="310mm" height="220mm" 
     viewBox="0 0 878.74 623.622" 
     xmlns="http://www.w3.org/2000/svg" version="1.1" xmlns:xlink="http://www.w3.org/1999/xlink" >
<desc>output.svg, created with the Board library (Copyleft) 2007 Sebastien Fourey</desc>
<line x1="0" y1="623.62" x2="0" y2="0" fill="none" stroke="rgb(0,0,0)" stroke-width="0.022mm" style="stroke-linecap:butt;stroke-linejoin:miter;stroke-dasharray:1,1;stroke-dashoffset:0" />
<line x1="28.35" y1="623.62" x2="28.35" y2="0" fill="none" stroke="rgb(0,0,0)" stroke-width="0.022mm" style="stroke-linecap:butt;stroke-linejoin:miter;stroke-dasharray:1,1;stroke-dashoffset:0" />
<line x1="56.69" y1="623.62" x2="56.69" y2="0" fill="none" stroke="rgb(0,0,0)" stroke-width="0.022mm" style="stroke-linecap:butt;stroke-linejoin:miter;stroke-dasharray:1,1;stroke-dashoffset:0" />
<line x1="85.04" y1="623.62" x2="85.04" y2="0" fill="none" stroke="rgb(0,0,0)" stroke-width="0.022mm" style="stroke-linecap:butt;stroke-linejoin:miter;stroke-dasharray:1,1;stroke-dashoffset:0" />
<line x1="113.39" y1="623.62" x2="113.39" y2="0" fill="none" stroke="rgb(0,0,0)" stroke-width="0.022mm" style="stroke-linecap:butt;stroke-linejoin:miter;stroke-dasharray:1,1;stroke-dashoffset:0" />
<line x1="141.73" y1="623.62" x2="141.73" y2="0" fill="none" stroke="rgb(0,0,0)" stroke-width="0.022mm" style="stroke-linecap:butt;stroke-linejoin:miter;stroke-dasharray:1,1;stroke-dashoffset:0" />
<line x1="170.08" y1="623.62" x2="170.08" y2="0" fill="none" stroke="rgb(0,0,0)" stroke-width="0.022mm" style="stroke-linecap:butt;stroke-linejoin:miter;stroke-dasharray:1,1;stroke-dashoffset:0" />
<line x1="198.43" y1="623.62" x2="198.43" y2="0" fill="none" stroke="rgb(0,0,0)" stroke-width="0.022mm" style="stroke-linecap:butt;stroke-linejoin:miter;stroke-dasharray:1,1;stroke-dashoffset:0" />
<line x1="226.77" y1="623.62" x2="226.77" y2="0" fill="none" stroke="rgb(0,0,0)" stroke-width="0.022mm" style="stroke-linecap:butt;stroke-linejoin:miter;stroke-dasharray:1,1;stroke-dashoffset:0" />
<line x1="255.12" y1="623.62" x2="255.12" y2="0" fill="none" stroke="rgb(0,0,0)" stroke-width="0.022mm" style="stroke-linecap:butt;stroke-linejoin:miter;stroke-dasharray:1,1;stroke-dashoffset:0" />
<line x1="283.46" y1="623.62" x2="283.46" y2="0" fill="none" stroke="rgb(0,0,0)" stroke-width="0.022mm" style="stroke-linecap:butt;stroke-linejoin:miter;stroke-dasharray:1,1;stroke-dashoffset:0" />
<line x1="311.81" y1="623.62" x2="311.81" y2="0" fill="none" stroke="rgb(0,0,0)" stroke-width="0.022mm" style="stroke-linecap:butt;stroke-linejoin:miter;stroke-dasharray:1,1;stroke-dashoffset:0" />
<line x1="340.16" y1="623.62" x2="340.16" y2="0" fill="none" stroke="rgb(0,0,0)" stroke-width="0.022mm" style="stroke-linecap:butt;stroke-linejoin:miter;stroke-dasharray:1,1;stroke-dashoffset:0" />
<line x1="368.5" y1="623.62" x2="368.5" y2="0" fill="none" stroke="rgb(0,0,0)" stroke-width="0.022mm" style="stroke-linecap:butt;stroke-linejoin:miter;stroke-dasharray:1,1;stroke-dashoffset:0" />
<line x1="396.85" y1="623.62" x2="396.85" y2="0" fill="none" stroke="rgb(0,0,0)" stroke-width="0.022mm" style="stroke-linecap:butt;stroke-linejoin:miter;stroke-dasharray:1,1;stroke-dashoffset:0" />
<line x1="425.2" y1="623.62" x2="425.2" y2="0" fill="none" stroke="rgb(0,0,0)" stroke-width="0.022mm" style="stroke-linecap:butt;stroke-linejoin:miter;stroke-dasharray:1,1;stroke-dashoffset:0" />
<line x1="453.54" y1="623.62" x2="453.54" y2="0" fill="none" stroke="rgb(0,0,0)" stroke-width="0.022mm" style="stroke-linecap:butt;stroke-linejoin:miter;stroke-dasharray:1,1;stroke-dashoffset:0" />
<line x1="481.89" y1="623.62" x2="481.89" y2="0" fill="none" stroke="rgb(0,0,0)" stroke-width="0.022mm" style="stroke-linecap:butt;stroke-linejoin:miter;stroke-dasharray:1,1;stroke-dashoffset:0" />
<line x1="510.24" y1="623.62" x2="510.24" y2="0" fill="none" stroke="rgb(0,0,0)" stroke-width="0.022mm" style="stroke-linecap:butt;stroke-linejoin:miter;stroke-dasharray:1,1;stroke-dashoffset:0" />
<line x1="538.58" y1="623.62" x2="538.58" y2="0" fill="none" stroke="rgb(0,0,0)" stroke-width="0.022mm" style="stroke-linecap:butt;stroke-linejoin:miter;stroke-dasharray:1,1;stroke-dashoffset:0" />
<line x1="566.93" y1="623.62" x2="566.93" y2="0" fill="none" stroke="rgb(0,0,0)" stroke-width="0.022mm" style="stroke-linecap:butt;stroke-linejoin:miter;stroke-dasharray:1,1;stroke-dashoffset:0" />
<line x1="595.28" y1="623.62" x2="595.28" y2="0" fill="none" stroke="rgb(0,0,0)" stroke-width="0.022mm" style="stroke-linecap:butt;stroke-linejoin:miter;stroke-dasharray:1,1;stroke-dashoffset:0" />
<line x1="623.62" y1="623.62" x2="623.62" y2="0" fill="none" stroke="rgb(0,0,0)" stroke-width="0.022mm" style="stroke-linecap:butt;stroke-linejoin:miter;stroke-dasharray:1,1;stroke-dashoffset:0" />
<line x1="651.97" y1="623.62" x2="651.97" y2="0" fill="none" stroke="rgb(0,0,0)" stroke-width="0.022mm" style="stroke-linecap:butt;stroke-linejoin:miter;stroke-dasharray:1,1;stroke-dashoffset:0" />
<line x1="680.32" y1="623.62" x2="680.32" y2="0" fill="none" stroke="rgb(0,0,0)" stroke-width="0.022mm" style="stroke-linecap:butt;stroke-linejoin:miter;stroke-dasharray:1,1;stroke-dashoffset:0" />
<line x1="708.66" y1="623.62" x2="708.66" y2="0" fill="none" stroke="rgb(0,0,0)" stroke-width="0.022mm" style="stroke-linecap:butt;stroke-linejoin:miter;stroke-dasharray:1,1;stroke-dashoffset:0" />
<line x1="737.01" y1="623.62" x2="737.01" y2="0" fill="none" stroke="rgb(0,0,0)" stroke-width="0.022mm" style="stroke-linecap:butt;stroke-linejoin:miter;stroke-dasharray:1,1;stroke-dashoffset:0" />
<line x1="765.35" y1="623.62" x2="765.35" y2="0" fill="none" stroke="rgb(0,0,0)" stroke-width="0.022mm" style="stroke-linecap:butt;stroke-linejoin:miter;stroke-dasharray:1,1;stroke-dashoffset:0" />
<line x1="793.7" y1="623.62" x2="793.7" y2="0" fill="none" stroke="rgb(0,0,0)" stroke-width="0.022mm" style="stroke-linecap:butt;stroke-linejoin:miter;stroke-dasharray:1,1;stroke-dashoffset:0" />
<line x1="822.05" y1="623.62" x2="822.05" y2="0" fill="none" stroke="rgb(0,0,0)" stroke-width="0.022mm" style="stroke-linecap:butt;stroke-linejoin:miter;stroke-dasharray:1,1;stroke-dashoffset:0" />
<line x1="850.39" y1="623.62" x2="850.39" y2="0" fill="none" stroke="rgb(0,0,0)" stroke-width="0.022mm" style="stroke-linecap:butt;stroke-linejoin:miter;stroke-dasharray:1,1;stroke-dashoffset:0" />
<line x1="878.74" y1="623.62" x2="878.74" y2="0" fill="none" stroke="rgb(0,0,0)" stroke-width="0.022mm" style="stroke-linecap:butt;stroke-linejoin:miter;stroke-dasharray:1,1;stroke-dashoffset:0" />
<line x1="0" y1="623.62" x2="878.74" y2="623.62" fill="none" stroke="rgb(0,0,0)" stroke-width="0.022mm" style="stroke-linecap:butt;stroke-linejoin:miter;stroke-dasharray:1,1;stroke-dashoffset:0" />
<line x1="0" y1="595.28" x2="878.74" y2="595.28" fill="none" stroke="rgb(0,0,0)" stroke-width="0.022mm" style="stroke-linecap:butt;stroke-linejoin:miter;stroke-dasharray:1,1;stroke-dashoffset:0" />
<line x1="0" y1="566.93" x2="878.74" y2="566.93" fill="none" stroke="rgb(0,0,0)" stroke-width="0.022mm" style="stroke-linecap:butt;stroke-linejoin:miter;stroke-dasharray:1,1;stroke-dashoffset:0" />
<line x1="0" y1="538.58" x2="878.74" y2="538.58" fill="none" stroke="rgb(0,0,0)" stroke-width="0.022mm" style="stroke-linecap:butt;stroke-linejoin:miter;stroke-dasharray:1,1;stroke-dashoffset:0" />
<line x1="0" y1="510.24" x2="878.74" y2="510.24" fill="none" stroke="rgb(0,0,0)" stroke-width="0.022mm" style="stroke-linecap:butt;stroke-linejoin:miter;stroke-dasharray:1,1;stroke-dashoffset:0" />
<line x1="0" y1="481.89" x2="878.74" y2="481.89" fill="none" stroke="rgb(0,0,0)" stroke-width="0.022mm" style="stroke-linecap:butt;stroke-linejoin:miter;stroke-dasharray:1,1;stroke-dashoffset:0" />
<line x1="0" y1="453.54" x2="878.74" y2="453.54" fill="none" stroke="rgb(0,0,0)" stroke-width="0.022mm" style="stroke-linecap:butt;stroke-linejoin:miter;stroke-dasharray:1,1;stroke-dashoffset:0" />
<line x1="0" y1="425.2" x2="878.74" y2="425.2" fill="none" stroke="rgb(0,0,0)" stroke-width="0.022mm" style="stroke-linecap:butt;stroke-linejoin:miter;stroke-dasharray:1,1;stroke-dashoffset:0" />
<line x1="0" y1="396.85" x2="878.74" y2="396.85" fill="none" stroke="rgb(0,0,0)" stroke-width="0.022mm" style="stroke-linecap:butt;stroke-linejoin:miter;stroke-dasharray:1,1;stroke-dashoffset:0" />
<line x1="0" y1="368.5" x2="878.74" y2="368.5" fill="none" stroke="rgb(0,0,0)" stroke-width="0.022mm" style="stroke-linecap:butt;stroke-linejoin:miter;stroke-dasharray:1,1;stroke-dashoffset:0" />
<line x1="0" y1="340.16" x2="878.74" y2="340.16" fill="none" stroke="rgb(0,0,0)" stroke-width="0.022mm" style="stroke-linecap:butt;stroke-linejoin:miter;stroke-dasharray:1,1;stroke-dashoffset:0" />
<line x1="0" y1="311.81" x2="878.74" y2="311.81" fill="none" stroke="rgb(0,0,0)" stroke-width="0.022mm" style="stroke-linecap:butt;stroke-linejoin:miter;stroke-dasharray:1,1;stroke-dashoffset:0" />
<line x1="0" y1="283.46" x2="878.74" y2="283.46" fill="none" stroke="rgb(0,0,0)" stroke-width="0.022mm" style="stroke-linecap:butt;stroke-linejoin:miter;stroke-dasharray:1,1;stroke-dashoffset:0" />
<line x1="0" y1="255.12" x2="878.74" y2="255.12" fill="none" stroke="rgb(0,0,0)" stroke-width="0.022mm" style="stroke-linecap:butt;stroke-linejoin:miter;stroke-dasharray:1,1;stroke-dashoffset:0" />
<line x1="0" y1="226.77" x2="878.74" y2="226.77" fill="none" stroke="rgb(0,0,0)" stroke-width="0.022mm" style="stroke-linecap:butt;stroke-linejoin:miter;stroke-dasharray:1,1;stroke-dashoffset:0" />
<line x1="0" y1="198.43" x2="878.74" y2="198.43" fill="none" stroke="rgb(0,0,0)" stroke-width="0.022mm" style="stroke-linecap:butt;stroke-linejoin:miter;stroke-dasharray:1,1;stroke-dashoffset:0" />
<line x1="0" y1="170.08" x2="878.74" y2="170.08" fill="none" stroke="rgb(0,0,0)" stroke-width="0.022mm" style="stroke-linecap:butt;stroke-linejoin:miter;stroke-dasharray:1,1;stroke-dashoffset:0" />
<line x1="0" y1="141.73" x2="878.74" y2="141.73" fill="none" stroke="rgb(0,0,0)" stroke-width="0.022mm" style="stroke-linecap:butt;stroke-linejoin:miter;stroke-dasharray:1,1;stroke-dashoffset:0" />
<line x1="0" y1="113.39" x2="878.74" y2="113.39" fill="none" stroke="rgb(0,0,0)" stroke-width="0.022mm" style="stroke-linecap:butt;stroke-linejoin:miter;stroke-dasharray:1,1;stroke-dashoffset:0" />
<line x1="0" y1="85.04" x2="878.74" y2="85.04" fill="none" stroke="rgb(0,0,0)" stroke-width="0.022mm" style="stroke-linecap:butt;stroke-linejoin:miter;stroke-dasharray:1,1;stroke-dashoffset:0" />
<line x1="0" y1="56.69" x2="878.74" y2="56.69" fill="none" stroke="rgb(0,0,0)" stroke-width="0.022mm" style="stroke-linecap:butt;stroke-linejoin:miter;stroke-dasharray:1,1;stroke-dashoffset:0" />
<line x1="0" y1="28.35" x2="878.74" y2="28.35" fill="none" stroke="rgb(0,0,0)" stroke-width="0.022mm" style="stroke-linecap:butt;stroke-linejoin:miter;stroke-dasharray:1,1;stroke-dashoffset:0" />
<line x1="0" y1="0" x2="878.74" y2="0" fill="none" stroke="rgb(0,0,0)" stroke-width="0.022mm" style="stroke-linecap:butt;stroke-linejoin:miter;stroke-dasharray:1,1;stroke-dashoffset:0" />
<polygon fill="rgb(0,0,0)" stroke="none" stroke-width="0" style="stroke-linecap:round;stroke-linejoin:round;"
          points="255.12,481.89 283.46,481.89 283.46,510.24 255.12,510.24 255.12,481.89" />
<polygon fill="rgb(0,0,0)" stroke="none" stroke-width="0" style="stroke-linecap:round;stroke-linejoin:round;"
          points="255.12,453.54 283.46,453.54 283.46,481.89 255.12,481.89 255.12,453.54" />
<polygon fill="rgb(0,0,0)" stroke="none" stroke-width="0" style="stroke-linecap:round;stroke-linejoin:round;"
          points="255.12,425.2 283.46,425.2 283.46,453.54 255.12,453.54 255.12,425.2" />
<polygon fill="rgb(0,0,0)" stroke="none" stroke-width="0" style="stroke-linecap:round;stroke-linejoin:round;"
          points="255.12,396.85 283.46,396.85 283.46,425.2 255.12,425.2 255.12,396.85" />
<polygon fill="rgb(0,0,0)" stroke="none" stroke-width="0" style="stroke-linecap:round;stroke-linejoin:round;"
          points="255.12,368.5 283.46,368.5 283.46,396.85 255.12,396.85 255.12,368.5" />
<polygon fill="rgb(0,0,0)" stroke="none" stroke-width="0" style="stroke-linecap:round;stroke-linejoin:round;"
          points="255.12,340.16 283.46,340.16 283.46,368.5 255.12,368.5 255.12,340.16" />
<polygon fill="rgb(0,0,0)" stroke="none" stroke-width="0" style="stroke-linecap:round;stroke-linejoin:round;"
          points="255.12,255.12 283.46,255.12 283.46,283.46 255.12,283.46 255.12,255.12" />
<polygon fill="rgb(0,0,0)" stroke="none" stroke-width="0" style="stroke-linecap:round;stroke-linejoin:round;"
          points="283.46,510.24 311.81,510.24 311.81,538.58 283.46,538.58 283.46,510.24" />
<polygon fill="rgb(0,0,0)" stroke="none" stroke-width="0" style="stroke-linecap:round;stroke-linejoin:round;"
          points="283.46,481.89 311.81,481.89 311.81,510.24 283.46,510.24 283.46,481.89" />
<polygon fill="rgb(0,0,0)" stroke="none" stroke-width="0" style="stroke-linecap:round;stroke-linejoin:round;"
          points="283.46,453.54 311.81,453.54 311.81,481.89 283.46,481.89 283.46,453.54" />
<polygon fill="rgb(0,0,0)" stroke="none" stroke-width="0" style="stroke-linecap:round;stroke-linejoin:round;"
          points="283.46,425.2 311.81,425.2 311.81,453.54 283.46,453.54 283.46,425.2" />
<polygon fill="rgb(0,0,0)" stroke="none" stroke-width="0" style="stroke-linecap:round;stroke-linejoin:round;"
          points="283.46,396.85 311.81,396.85 311.81,425.2 283.46,425.2 283.46,396.85" />
<polygon fill="rgb(0,0,0)" stroke="none" stroke-width="0" style="stroke-linecap:round;stroke-linejoin:round;"
          points="283.46,368.5 311.81,368.5 311.81,396.85 283.46,396.85 283.46,368.5" />
<polygon fill="rgb(0,0,0)" stroke="none" stroke-width="0" style="stroke-linecap:round;stroke-linejoin:round;"
          points="283.46,340.16 311.81,340.16 311.81,368.5 283.46,368.5 283.46,340.16" />
<polygon fill="rgb(0,0,0)" stroke="none" stroke-width="0" style="stroke-linecap:round;stroke-linejoin:round;"
          points="283.46,311.81 311.81,311.81 311.81,340.16 283.46,340.16 283.46,311.81" />
<polygon fill="rgb(0,0,0)" stroke="none" stroke-width="0" style="stroke-linecap:round;stroke-linejoin:round;"
          points="283.46,283.46 311.81,283.46 311.81,311.81 283.46,311.81 283.46,283.46" />
<polygon fill="rgb(0,0,0)" stroke="none" stroke-width="0" style="stroke-linecap:round;stroke-linejoin:round;"
          points="283.46,255.12 311.81,255.12 311.81,283.46 283.46,283.46 283.46,255.12" />
<polygon fill="rgb(0,0,0)" stroke="none" stroke-width="0" style="stroke-linecap:round;stroke-linejoin:round;"
          points="311.81,538.58 340.16,538.58 340.16,566.93 311.81,566.93 311.81,538.58" />
<polygon fill="rgb(0,0,0)" stroke="none" stroke-width="0" style="stroke-linecap:round;stroke-linejoin:round;"
          points="311.81,510.24 340.16,510.24 340.16,538.58 311.81,538.58 311.81,510.24" />
<polygon fill="rgb(0,0,0)" stroke="none" stroke-width="0" style="stroke-linecap:round;stroke-linejoin:round;"
          points="311.81,481.89 340.16,481.89 340.16,510.24 311.81,510.24 311.81,481.89" />
<polygon fill="rgb(0,0,0)" stroke="none" stroke-width="0" style="stroke-linecap:round;stroke-linejoin:round;"
          points="311.81,453.54 340.16,453.54 340.16,481.89 311.81,481.89 311.81,453.54" />
<polygon fill="rgb(0,0,0)" stroke="none" stroke-width="0" style="stroke-linecap:round;stroke-linejoin:round;"
          points="311.81,425.2 340.16,425.2 340.16,453.54 311.81,453.54 311.81,425.2" />
<polygon fill="rgb(0,0,0)" stroke="none" stroke-width="0" style="stroke-linecap:round;stroke-linejoin:round;"
          points="311.81,396.85 340.16,396.85 340.16,425.2 311.81,425.2 311.81,396.85" />
<polygon fill="rgb(0,0,0)" stroke="none" stroke-width="0" style="stroke-linecap:round;stroke-linejoin:round;"
          points="311.81,368.5 340.16,368.5 340.16,396.85 311.81,396.85 311.81,368.5" />
<polygon fill="rgb(0,0,0)" stroke="none" stroke-width="0" style="stroke-linecap:round;stroke-linejoin:round;"
          points="311.81,340.16 340.16,340.16 340.16,368.5 311.81,368.5 311.81,340.16" />
<polygon fill="rgb(0,0,0)" stroke="none" stroke-width="0" style="stroke-linecap:round;stroke-linejoin:round;"
          points="311.81,311.81 340.16,311.81 340.16,340.16 311.81,340.16 311.81,311.81" />
<polygon fill="rgb(0,0,0)" stroke="none" stroke-width="0" style="stroke-linecap:round;stroke-linejoin:round;"
          points="311.81,283.46 340.16,283.46 340.16,311.81 311.81,311.81 311.81,283.46" />
<polygon fill="rgb(0,0,0)" stroke="none" stroke-width="0" style="stroke-linecap:round;stroke-linejoin:round;"
          points="311.81,255.12 340.16,255.12 340.16,283.46 311.81,283.46 311.81,255.12" />
<polygon fill="rgb(0,0,0)" stroke="none" stroke-width="0" style="stroke-linecap:round;stroke-linejoin:round;"
          points="311.81,226.77 340.16,226.77 340.16,255.12 311.81,255.12 311.81,226.77" />
<polygon fill="rgb(0,0,0)" stroke="none" stroke-width="0" style="stroke-linecap:round;stroke-linejoin:round;"
          points="311.81,198.43 340.16,198.43 340.16,226.77 311.81,226.77 311.81,198.43" />
<polygon fill="rgb(0,0,0)" stroke="none" stroke-width="0" style="stroke-linecap:round;stroke-linejoin:round;"
          points="311.81,170.08 340.16,170.08 340.16,198.43 311.81,198.43 311.81,170.08" />
<polygon fill="rgb(0,0,0)" stroke="none" stroke-width="0" style="stroke-linecap:round;stroke-linejoin:round;"
          points="340.16,595.28 368.5,595.28 368.5,623.62 340.16,623.62 340.16,595.28" />
<polygon fill="rgb(0,0,0)" stroke="none" stroke-width="0" style="stroke-linecap:round;stroke-linejoin:round;"
          points="340.16,566.93 368.5,566.93 368.5,595.28 340.16,595.28 340.16,566.93" />
<polygon fill="rgb(0,0,0)" stroke="none" stroke-width="0" style="stroke-linecap:round;stroke-linejoin:round;"
          points="340.16,538.58 368.5,538.58 368.5,566.93 340.16,566.93 340.16,538.58" />
<polygon fill="rgb(0,0,0)" stroke="none" stroke-width="0" style="stroke-linecap:round;stroke-linejoin:round;"
          points="340.16,510.24 368.5,510.24 368.5,538.58 340.16,538.58 340.16,510.24" />
<polygon fill="rgb(0,0,0)" stroke="none" stroke-width="0" style="stroke-linecap:round;stroke-linejoin:round;"
          points="340.16,481.89 368.5,481.89 368.5,510.24 340.16,510.24 340.16,481.89" />
<polygon fill="rgb(0,0,0)" stroke="none" stroke-width="0" style="stroke-linecap:round;stroke-linejoin:round;"
          points="340.16,453.54 368.5,453.54 368.5,481.89 340.16,481.89 340.16,453.54" />
<polygon fill="rgb(0,0,0)" stroke="none" stroke-width="0" style="stroke-linecap:round;stroke-linejoin:round;"
          points="340.16,425.2 368.5,425.2 368.5,453.54 340.16,453.54 340.16,425.2" />
<polygon fill="rgb(0,0,0)" stroke="none" stroke-width="0" style="stroke-linecap:round;stroke-linejoin:round;"
          points="340.16,396.85 368.5,396.85 368.5,425.2 340.16,425.2 340.16,396.85" />
<polygon fill="rgb(0,0,0)" stroke="none" stroke-width="0" style="stroke-linecap:round;stroke-linejoin:round;"
          points="340.16,368.5 368.5,368.5 368.5,396.85 340.16,396.85 340.16,368.5" />
<polygon fill="rgb(0,0,0)" stroke="none" stroke-width="0" style="stroke-linecap:round;stroke-linejoin:round;"
          points="340.16,340.16 368.5,340.16 368.5,368.5 340.16,368.5 340.16,340.16" />
<polygon fill="rgb(0,0,0)" stroke="none" stroke-width="0" style="stroke-linecap:round;stroke-linejoin:round;"
          points="340.16,311.81 368.5,311.81 368.5,340.16 340.16,340.16 340.16,311.81" />
<polygon fill="rgb(0,0,0)" stroke="none" stroke-width="0" style="stroke-linecap:round;stroke-linejoin:round;"
          points="340.16,283.46 368.5,283.46 368.5,311.81 340.16,311.81 340.16,283.46" />
<polygon fill="rgb(0,0,0)" stroke="none" stroke-width="0" style="stroke-linecap:round;stroke-linejoin:round;"
          points="340.16,255.12 368.5,255.12 368.5,283.46 340.16,283.46 340.16,255.12" />
<polygon fill="rgb(0,0,0)" stroke="none" stroke-width="0" style="stroke-linecap:round;stroke-linejoin:round;"
          points="340.16,226.77 368.5,226.77 368.5,255.12 340.16,255.12 340.16,226.77" />
<polygon fill="rgb(0,0,0)" stroke="none" stroke-width="0" style="stroke-linecap:round;stroke-linejoin:round;"
          points="340.16,198.43 368.5,198.43 368.5,226.77 340.16,226.77 340.16,198.43" />
<polygon fill="rgb(0,0,0)" stroke="none" stroke-width="0" style="stroke-linecap:round;stroke-linejoin:round;"
          points="340.16,170.08 368.5,170.08 368.5,198.43 340.16,198.43 340.16,170.08" />
<polygon fill="rgb(0,0,0)" stroke="none" stroke-width="0" style="stroke-linecap:round;stroke-linejoin:round;"
          points="340.16,141.73 368.5,141.73 368.5,170.08 340.16,170.08 340.16,141.73" />
<polygon fill="rgb(0,0,0)" stroke="none" stroke-width="0" style="stroke-linecap:round;stroke-linejoin:round;"
          points="368.5,566.93 396.85,566.93 396.85,595.28 368.5,595.28 368.5,566.93" />
<polygon fill="rgb(0,0,0)" stroke="none" stroke-width="0" style="stroke-linecap:round;stroke-linejoin:round;"
          points="368.5,538.58 396.85,538.58 396.85,566.93 368.5,566.93 368.5,538.58" />
<polygon fill="rgb(0,0,0)" stroke="none" stroke-width="0" style="stroke-linecap:round;stroke-linejoin:round;"
          points="368.5,510.24 396.85,510.24 396.85,538.58 368.5,538.58 368.5,510.24" />
<polygon fill="rgb(0,0,0)" stroke="none" stroke-width="0" style="stroke-linecap:round;stroke-linejoin:round;"
          points="368.5,481.89 396.85,481.89 396.85,510.24 368.5,510.24 368.5,481.89" />
<polygon fill="rgb(0,0,0)" stroke="none" stroke-width="0" style="stroke-linecap:round;stroke-linejoin:round;"
          points="368.5,453.54 396.85,453.54 396.85,481.89 368.5,481.89 368.5,453.54" />
<polygon fill="rgb(0,0,0)" stroke="none" stroke-width="0" style="stroke-linecap:round;stroke-linejoin:round;"
          points="368.5,425.2 396.85,425.2 396.85,453.54 368.5,453.54 368.5,425.2" />
<polygon fill="rgb(0,0,0)" stroke="none" stroke-width="0" style="stroke-linecap:round;stroke-linejoin:round;"
          points="368.5,396.85 396.85,396.85 396.85,425.2 368.5,425.2 368.5,396.85" />
<polygon fill="rgb(0,0,0)" stroke="none" stroke-width="0" style="stroke-linecap:round;stroke-linejoin:round;"
          points="368.5,368.5 396.85,368.5 396.85,396.85 368.5,396.85 368.5,368.5" />
<polygon fill="rgb(0,0,0)" stroke="none" stroke-width="0" style="stroke-linecap:round;stroke-linejoin:round;"
          points="368.5,340.16 396.85,340.16 396.85,368.5 368.5,368.5 368.5,340.16" />
<polygon fill="rgb(0,0,0)" stroke="none" stroke-width="0" style="stroke-linecap:round;stroke-linejoin:round;"
          points="368.5,311.81 396.85,311.81 396.85,340.16 368.5,340.16 368.5,311.81" />
<polygon fill="rgb(0,0,0)" stroke="none" stroke-width="0" style="stroke-linecap:round;stroke-linejoin:round;"
          points="368.5,283.46 396.85,283.46 396.85,311.81 368.5,311.81 368.5,283.46" />
<polygon fill="rgb(0,0,0)" stroke="none" stroke-width="0" style="stroke-linecap:round;stroke-linejoin:round;"
          points="368.5,255.12 396.85,255.12 396.85,283.46 368.5,283.46 368.5,255.12" />
<polygon fill="rgb(0,0,0)" stroke="none" stroke-width="0" style="stroke-linecap:round;stroke-linejoin:round;"
          points="368.5,226.77 396.85,226.77 396.85,255.12 368.5,255.12 368.5,226.77" />
<polygon fill="rgb(0,0,0)" stroke="none" stroke-width="0" style="stroke-linecap:round;stroke-linejoin:round;"
          points="368.5,198.43 396.85,198.43 396.85,226.77 368.5,226.77 368.5,198.43" />
<polygon fill="rgb(0,0,0)" stroke="none" stroke-width="0" style="stroke-linecap:round;stroke-linejoin:round;"
          points="368.5,170.08 396.85,170.08 396.85,198.43 368.5,198.43 368.5,170.08" />
<polygon fill="rgb(0,0,0)" stroke="none" stroke-width="0" style="stroke-linecap:round;stroke-linejoin:round;"
          points="368.5,141.73 396.85,141.73 396.85,170.08 368.5,170.08 368.5,141.73" />
<polygon fill="rgb(0,0,0)" stroke="none" stroke-width="0" style="stroke-linecap:round;stroke-linejoin:round;"
          points="368.5,113.39 396.85,113.39 396.85,141.73 368.5,141.73 368.5,113.39" />
<polygon fill="rgb(0,0,0)" stroke="none" stroke-width="0" style="stroke-linecap:round;stroke-linejoin:round;"
          points="368.5,85.04 396.85,85.04 396.85,113.39 368.5,113.39 368.5,85.04" />
<polygon fill="rgb(0,0,0)" stroke="none" stroke-width="0" style="stroke-linecap:round;stroke-linejoin:round;"
          points="396.85,566.93 425.2,566.93 425.2,595.28 396.85,595.28 396.85,566.93" />
<polygon fill="rgb(0,0,0)" stroke="none" stroke-width="0" style="stroke-linecap:round;stroke-linejoin:round;"
          points="396.85,538.58 425.2,538.58 425.2,566.93 396.85,566.93 396.85,538.58" />
<polygon fill="rgb(0,0,0)" stroke="none" stroke-width="0" style="stroke-linecap:round;stroke-linejoin:round;"
          points="396.85,510.24 425.2,510.24 425.2,538.58 396.85,538.58 396.85,510.24" />
<polygon fill="rgb(0,0,0)" stroke="none" stroke-width="0" style="stroke-linecap:round;stroke-linejoin:round;"
          points="396.85,481.89 425.2,481.89 425.2,510.24 396.85,510.24 396.85,481.89" />
<polygon fill="rgb(0,0,0)" stroke="none" stroke-width="0" style="stroke-linecap:round;stroke-linejoin:round;"
          points="396.85,453.54 425.2,453.54 425.2,481.89 396.85,481.89 396.85,453.54" />
<polygon fill="rgb(0,0,0)" stroke="none" stroke-width="0" style="stroke-linecap:round;stroke-linejoin:round;"
          points="396.85,425.2 425.2,425.2 425.2,453.54 396.85,453.54 396.85,425.2" />
<polygon fill="rgb(0,0,0)" stroke="none" stroke-width="0" style="stroke-linecap:round;stroke-linejoin:round;"
          points="396.85,396.85 425.2,396.85 425.2,425.2 396.85,425.2 396.85,396.85" />
<polygon fill="rgb(0,0,0)" stroke="none" stroke-width="0" style="stroke-linecap:round;stroke-linejoin:round;"
          points="396.85,368.5 425.2,368.5 425.2,396.85 396.85,396.85 396.85,368.5" />
<polygon fill="rgb(0,0,0)" stroke="none" stroke-width="0" style="stroke-linecap:round;stroke-linejoin:round;"
          points="396.85,340.16 425.2,340.16 425.2,368.5 396.85,368.5 396.85,340.16" />
<polygon fill="rgb(0,0,0)" stroke="none" stroke-width="0" style="stroke-linecap:round;stroke-linejoin:round;"
          points="396.85,311.81 425.2,311.81 425.2,340.16 396.85,340.16 396.85,311.81" />
<polygon fill="rgb(0,0,0)" stroke="none" stroke-width="0" style="stroke-linecap:round;stroke-linejoin:round;"
          points="396.85,283.46 425.2,283.46 425.2,311.81 396.85,311.81 396.85,283.46" />
<polygon fill="rgb(0,0,0)" stroke="none" stroke-width="0" style="stroke-linecap:round;stroke-linejoin:round;"
          points="396.85,255.12 425.2,255.12 425.2,283.46 396.85,283.46 396.85,255.12" />
<polygon fill="rgb(0,0,0)" stroke="none" stroke-width="0" style="stroke-linecap:round;stroke-linejoin:round;"
          points="396.85,226.77 425.2,226.77 425.2,255.12 396.85,255.12 396.85,226.77" />
<polygon fill="rgb(0,0,0)" stroke="none" stroke-width="0" style="stroke-linecap:round;stroke-linejoin:round;"
          points="396.85,198.43 425.2,198.43 425.2,226.77 396.85,226.77 396.85,198.43" />
<polygon fill="rgb(0,0,0)" stroke="none" stroke-width="0" style="stroke-linecap:round;stroke-linejoin:round;"
          points="396.85,170.08 425.2,170.08 425.2,198.43 396.85,198.43 396.85,170.08" />
<polygon fill="rgb(0,0,0)" stroke="none" stroke-width="0" style="stroke-linecap:round;stroke-linejoin:round;"
          points="396.85,141.73 425.2,141.73 425.2,170.08 396.85,170.08 396.85,141.73" />
<polygon fill="rgb(0,0,0)" stroke="none" stroke-width="0" style="stroke-linecap:round;stroke-linejoin:round;"
          points="396.85,113.39 425.2,113.39 425.2,141.73 396.85,141.73 396.85,113.39" />
<polygon fill="rgb(0,0,0)" stroke="none" stroke-width="0" style="stroke-linecap:round;stroke-linejoin:round;"
          points="396.85,85.04 425.2,85.04 425.2,113.39 396.85,113.39 396.85,85.04" />
<polygon fill="rgb(0,0,0)" stroke="none" stroke-width="0" style="stroke-linecap:round;stroke-linejoin:round;"
          points="396.85,56.69 425.2,56.69 425.2,85.04 396.85,85.04 396.85,56.69" />
<polygon fill="rgb(0,0,0)" stroke="none" stroke-width="0" style="stroke-linecap:round;stroke-linejoin:round;"
          points="425.2,566.93 453.54,566.93 453.54,595.28 425.2,595.28 425.2,566.93" />
<polygon fill="rgb(0,0,0)" stroke="none" stroke-width="0" style="stroke-linecap:round;stroke-linejoin:round;"
          points="425.2,538.58 453.54,538.58 453.54,566.93 425.2,566.93 425.2,538.58" />
<polygon fill="rgb(0,0,0)" stroke="none" stroke-width="0" style="stroke-linecap:round;stroke-linejoin:round;"
          points="425.2,510.24 453.54,510.24 453.54,538.58 425.2,538.58 425.2,510.24" />
<polygon fill="rgb(0,0,0)" stroke="none" stroke-width="0" style="stroke-linecap:round;stroke-linejoin:round;"
          points="425.2,481.89 453.54,481.89 453.54,510.24 425.2,510.24 425.2,481.89" />
<polygon fill="rgb(0,0,0)" stroke="none" stroke-width="0" style="stroke-linecap:round;stroke-linejoin:round;"
          points="425.2,453.54 453.54,453.54 453.54,481.89 425.2,481.89 425.2,453.54" />
<polygon fill="rgb(0,0,0)" stroke="none" stroke-width="0" style="stroke-linecap:round;stroke-linejoin:round;"
          points="425.2,425.2 453.54,425.2 453.54,453.54 425.2,453.54 425.2,425.2" />
<polygon fill="rgb(0,0,0)" stroke="none" stroke-width="0" style="stroke-linecap:round;stroke-linejoin:round;"
          points="425.2,396.85 453.54,396.85 453.54,425.2 425.2,425.2 425.2,396.85" />
<polygon fill="rgb(0,0,0)" stroke="none" stroke-width="0" style="stroke-linecap:round;stroke-linejoin:round;"
          points="425.2,368.5 453.54,368.5 453.54,396.85 425.2,396.85 425.2,368.5" />
<polygon fill="rgb(0,0,0)" stroke="none" stroke-width="0" style="stroke-linecap:round;stroke-linejoin:round;"
          points="425.2,340.16 453.54,340.16 453.54,368.5 425.2,368.5 425.2,340.16" />
<polygon fill="rgb(0,0,0)" stroke="none" stroke-width="0" style="stroke-linecap:round;stroke-linejoin:round;"
          points="425.2,311.81 453.54,311.81 453.54,340.16 425.2,340.16 425.2,311.81" />
<polygon fill="rgb(0,0,0)" stroke="none" stroke-width="0" style="stroke-linecap:round;stroke-linejoin:round;"
          points="425.2,283.46 453.54,283.46 453.54,311.81 425.2,311.81 425.2,283.46" />
<polygon fill="rgb(0,0,0)" stroke="none" stroke-width="0" style="stroke-linecap:round;stroke-linejoin:round;"
          points="425.2,255.12 453.54,255.12 453.54,283.46 425.2,283.46 425.2,255.12" />
<polygon fill="rgb(0,0,0)" stroke="none" stroke-width="0" style="stroke-linecap:round;stroke-linejoin:round;"
          points="425.2,226.77 453.54,226.77 453.54,255.12 425.2,255.12 425.2,226.77" />
<polygon fill="rgb(0,0,0)" stroke="none" stroke-width="0" style="stroke-linecap:round;stroke-linejoin:round;"
          points="425.2,198.43 453.54,198.43 453.54,226.77 425.2,226.77 425.2,198.43" />
<polygon fill="rgb(0,0,0)" stroke="none" stroke-width="0" style="stroke-linecap:round;stroke-linejoin:round;"
          points="425.2,170.08 453.54,170.08 453.54,198.43 425.2,198.43 425.2,170.08" />
<polygon fill="rgb(0,0,0)" stroke="none" stroke-width="0" style="stroke-linecap:round;stroke-linejoin:round;"
          points="425.2,141.73 453.54,141.73 453.54,170.08 425.2,170.08 425.2,141.73" />
<polygon fill="rgb(0,0,0)" stroke="none" stroke-width="0" style="stroke-linecap:round;stroke-linejoin:round;"
          points="425.2,113.39 453.54,113.39 453.54,141.73 425.2,141.73 425.2,113.39" />
<polygon fill="rgb(0,0,0)" stroke="none" stroke-width="0" style="stroke-linecap:round;stroke-linejoin:round;"
          points="425.2,85.04 453.54,85.04 453.54,113.39 425.2,113.39 425.2,85.04" />
<polygon fill="rgb(0,0,0)" stroke="none" stroke-width="0" style="stroke-linecap:round;stroke-linejoin:round;"
          points="453.54,566.93 481.89,566.93 481.89,595.28 453.54,595.28 453.54,566.93" />
<polygon fill="rgb(0,0,0)" stroke="none" stroke-width="0" style="stroke-linecap:round;stroke-linejoin:round;"
          points="453.54,538.58 481.89,538.58 481.89,566.93 453.54,566.93 453.54,538.58" />
<polygon fill="rgb(0,0,0)" stroke="none" stroke-width="0" style="stroke-linecap:round;stroke-linejoin:round;"
          points="453.54,510.24 481.89,510.24 481.89,538.58 453.54,538.58 453.54,510.24" />
<polygon fill="rgb(0,0,0)" stroke="none" stroke-width="0" style="stroke-linecap:round;stroke-linejoin:round;"
          points="453.54,481.89 481.89,481.89 481.89,510.24 453.54,510.24 453.54,481.89" />
<polygon fill="rgb(0,0,0)" stroke="none" stroke-width="0" style="stroke-linecap:round;stroke-linejoin:round;"
          points="453.54,453.54 481.89,453.54 481.89,481.89 453.54,481.89 453.54,453.54" />
<polygon fill="rgb(0,0,0)" stroke="none" stroke-width="0" style="stroke-linecap:round;stroke-linejoin:round;"
          points="453.54,425.2 481.89,425.2 481.89,453.54 453.54,453.54 453.54,425.2" />
<polygon fill="rgb(0,0,0)" stroke="none" stroke-width="0" style="stroke-linecap:round;stroke-linejoin:round;"
          points="453.54,396.85 481.89,396.85 481.89,425.2 453.54,425.2 453.54,396.85" />
<polygon fill="rgb(0,0,0)" stroke="none" stroke-width="0" style="stroke-linecap:round;stroke-linejoin:round;"
          points="453.54,368.5 481.89,368.5 481.89,396.85 453.54,396.85 453.54,368.5" />
<polygon fill="rgb(0,0,0)" stroke="none" stroke-width="0" style="stroke-linecap:round;stroke-linejoin:round;"
          points="453.54,340.16 481.89,340.16 481.89,368.5 453.54,368.5 453.54,340.16" />
<polygon fill="rgb(0,0,0)" stroke="none" stroke-width="0" style="stroke-linecap:round;stroke-linejoin:round;"
          points="453.54,311.81 481.89,311.81 481.89,340.16 453.54,340.16 453.54,311.81" />
<polygon fill="rgb(0,0,0)" stroke="none" stroke-width="0" style="stroke-linecap:round;stroke-linejoin:round;"
          points="453.54,283.46 481.89,283.46 481.89,311.81 453.54,311.81 453.54,283.46" />
<polygon fill="rgb(0,0,0)" stroke="none" stroke-width="0" style="stroke-linecap:round;stroke-linejoin:round;"
          points="453.54,255.12 481.89,255.12 481.89,283.46 453.54,283.46 453.54,255.12" />
<polygon fill="rgb(0,0,0)" stroke="none" stroke-width="0" style="stroke-linecap:round;stroke-linejoin:round;"
          points="453.54,226.77 481.89,226.77 481.89,255.12 453.54,255.12 453.54,226.77" />
<polygon fill="rgb(0,0,0)" stroke="none" stroke-width="0" style="stroke-linecap:round;stroke-linejoin:round;"
          points="453.54,198.43 481.89,198.43 481.89,226.77 453.54,226.77 453.54,198.43" />
<polygon fill="rgb(0,0,0)" stroke="none" stroke-width="0" style="stroke-linecap:round;stroke-linejoin:round;"
          points="453.54,170.08 481.89,170.08 481.89,198.43 453.54,198.43 453.54,170.08" />
<polygon fill="rgb(0,0,0)" stroke="none" stroke-width="0" style="stroke-linecap:round;stroke-linejoin:round;"
          points="453.54,141.73 481.89,141.73 481.89,170.08 453.54,170.08 453.54,141.73" />
<polygon fill="rgb(0,0,0)" stroke="none" stroke-width="0" style="stroke-linecap:round;stroke-linejoin:round;"
          points="453.54,113.39 481.89,113.39 481.89,141.73 453.54,141.73 453.54,113.39" />
<polygon fill="rgb(0,0,0)" stroke="none" stroke-width="0" style="stroke-linecap:round;stroke-linejoin:round;"
          points="453.54,85.04 481.89,85.04 481.89,113.39 453.54,113.39 453.54,85.04" />
<polygon fill="rgb(0,0,0)" stroke="none" stroke-width="0" style="stroke-linecap:round;stroke-linejoin:round;"
          points="453.54,56.69 481.89,56.69 481.89,85.04 453.54,85.04 453.54,56.69" />
<polygon fill="rgb(0,0,0)" stroke="none" stroke-width="0" style="stroke-linecap:round;stroke-linejoin:round;"
          points="481.89,538.58 510.24,538.58 510.24,566.93 481.89,566.93 481.89,538.58" />
<polygon fill="rgb(0,0,0)" stroke="none" stroke-width="0" style="stroke-linecap:round;stroke-linejoin:round;"
          points="481.89,510.24 510.24,510.24 510.24,538.58 481.89,538.58 481.89,510.24" />
<polygon fill="rgb(0,0,0)" stroke="none" stroke-width="0" style="stroke-linecap:round;stroke-linejoin:round;"
          points="481.89,481.89 510.24,481.89 510.24,510.24 481.89,510.24 481.89,481.89" />
<polygon fill="rgb(0,0,0)" stroke="none" stroke-width="0" style="stroke-linecap:round;stroke-linejoin:round;"
          points="481.89,453.54 510.24,453.54 510.24,481.89 481.89,481.89 481.89,453.54" />
<polygon fill="rgb(0,0,0)" stroke="none" stroke-width="0" style="stroke-linecap:round;stroke-linejoin:round;"
          points="481.89,425.2 510.24,425.2 510.24,453.54 481.89,453.54 481.89,425.2" />
<polygon fill="rgb(0,0,0)" stroke="none" stroke-width="0" style="stroke-linecap:round;stroke-linejoin:round;"
          points="481.89,396.85 510.24,396.85 510.24,425.2 481.89,425.2 481.89,396.85" />
<polygon fill="rgb(0,0,0)" stroke="none" stroke-width="0" style="stroke-linecap:round;stroke-linejoin:round;"
          points="481.89,368.5 510.24,368.5 510.24,396.85 481.89,396.85 481.89,368.5" />
<polygon fill="rgb(0,0,0)" stroke="none" stroke-width="0" style="stroke-linecap:round;stroke-linejoin:round;"
          points="481.89,340.16 510.24,340.16 510.24,368.5 481.89,368.5 481.89,340.16" />
<polygon fill="rgb(0,0,0)" stroke="none" stroke-width="0" style="stroke-linecap:round;stroke-linejoin:round;"
          points="481.89,311.81 510.24,311.81 510.24,340.16 481.89,340.16 481.89,311.81" />
<polygon fill="rgb(0,0,0)" stroke="none" stroke-width="0" style="stroke-linecap:round;stroke-linejoin:round;"
          points="481.89,283.46 510.24,283.46 510.24,311.81 481.89,311.81 481.89,283.46" />
<polygon fill="rgb(0,0,0)" stroke="none" stroke-width="0" style="stroke-linecap:round;stroke-linejoin:round;"
          points="481.89,255.12 510.24,255.12 510.24,283.46 481.89,283.46 481.89,255.12" />
<polygon fill="rgb(0,0,0)" stroke="none" stroke-width="0" style="stroke-linecap:round;stroke-linejoin:round;"
          points="481.89,226.77 510.24,226.77 510.24,255.12 481.89,255.12 481.89,226.77" />
<polygon fill="rgb(0,0,0)" stroke="none" stroke-width="0" style="stroke-linecap:round;stroke-linejoin:round;"
          points="481.89,198.43 510.24,198.43 510.24,226.77 481.89,226.77 481.89,198.43" />
<polygon fill="rgb(0,0,0)" stroke="none" stroke-width="0" style="stroke-linecap:round;stroke-linejoin:round;"
          points="481.89,170.08 510.24,170.08 510.24,198.43 481.89,198.43 481.89,170.08" />
<polygon fill="rgb(0,0,0)" stroke="none" stroke-width="0" style="stroke-linecap:round;stroke-linejoin:round;"
          points="481.89,141.73 510.24,141.73 510.24,170.08 481.89,170.08 481.89,141.73" />
<polygon fill="rgb(0,0,0)" stroke="none" stroke-width="0" style="stroke-linecap:round;stroke-linejoin:round;"
          points="481.89,113.39 510.24,113.39 510.24,141.73 481.89,141.73 481.89,113.39" />
<polygon fill="rgb(0,0,0)" stroke="none" stroke-width="0" style="stroke-linecap:round;stroke-linejoin:round;"
          points="481.89,85.04 510.24,85.04 510.24,113.39 481.89,113.39 481.89,85.04" />
<polygon fill="rgb(0,0,0)" stroke="none" stroke-width="0" style="stroke-linecap:round;stroke-linejoin:round;"
          points="481.89,56.69 510.24,56.69 510.24,85.04 481.89,85.04 481.89,56.69" />
<polygon fill="rgb(0,0,0)" stroke="none" stroke-width="0" style="stroke-linecap:round;stroke-linejoin:round;"
          points="510.24,481.89 538.58,481.89 538.58,510.24 510.24,510.24 510.24,481.89" />
<polygon fill="rgb(0,0,0)" stroke="none" stroke-width="0" style="stroke-linecap:round;stroke-linejoin:round;"
          points="510.24,453.54 538.58,453.54 538.58,481.89 510.24,481.89 510.24,453.54" />
<polygon fill="rgb(0,0,0)" stroke="none" stroke-width="0" style="stroke-linecap:round;stroke-linejoin:round;"
          points="510.24,425.2 538.58,425.2 538.58,453.54 510.24,453.54 510.24,425.2" />
<polygon fill="rgb(0,0,0)" stroke="none" stroke-width="0" style="stroke-linecap:round;stroke-linejoin:round;"
          points="510.24,396.85 538.58,396.85 538.58,425.2 510.24,425.2 510.24,396.85" />
<polygon fill="rgb(0,0,0)" stroke="none" stroke-width="0" style="stroke-linecap:round;stroke-linejoin:round;"
          points="510.24,368.5 538.58,368.5 538.58,396.85 510.24,396.85 510.24,368.5" />
<polygon fill="rgb(0,0,0)" stroke="none" stroke-width="0" style="stroke-linecap:round;stroke-linejoin:round;"
          points="510.24,340.16 538.58,340.16 538.58,368.5 510.24,368.5 510.24,340.16" />
<polygon fill="rgb(0,0,0)" stroke="none" stroke-width="0" style="stroke-linecap:round;stroke-linejoin:round;"
          points="510.24,311.81 538.58,311.81 538.58,340.16 510.24,340.16 510.24,311.81" />
<polygon fill="rgb(0,0,0)" stroke="none" stroke-width="0" style="stroke-linecap:round;stroke-linejoin:round;"
          points="510.24,283.46 538.58,283.46 538.58,311.81 510.24,311.81 510.24,283.46" />
<polygon fill="rgb(0,0,0)" stroke="none" stroke-width="0" style="stroke-linecap:round;stroke-linejoin:round;"
          points="510.24,255.12 538.58,255.12 538.58,283.46 510.24,283.46 510.24,255.12" />
<polygon fill="rgb(0,0,0)" stroke="none" stroke-width="0" style="stroke-linecap:round;stroke-linejoin:round;"
          points="510.24,226.77 538.58,226.77 538.58,255.12 510.24,255.12 510.24,226.77" />
<polygon fill="rgb(0,0,0)" stroke="none" stroke-width="0" style="stroke-linecap:round;stroke-linejoin:round;"
          points="510.24,198.43 538.58,198.43 538.58,226.77 510.24,226.77 510.24,198.43" />
<polygon fill="rgb(0,0,0)" stroke="none" stroke-width="0" style="stroke-linecap:round;stroke-linejoin:round;"
          points="510.24,170.08 538.58,170.08 538.58,198.43 510.24,198.43 510.24,170.08" />
<polygon fill="rgb(0,0,0)" stroke="none" stroke-width="0" style="stroke-linecap:round;stroke-linejoin:round;"
          points="510.24,141.73 538.58,141.73 538.58,170.08 510.24,170.08 510.24,141.73" />
<polygon fill="rgb(0,0,0)" stroke="none" stroke-width="0" style="stroke-linecap:round;stroke-linejoin:round;"
          points="510.24,113.39 538.58,113.39 538.58,141.73 510.24,141.73 510.24,113.39" />
<polygon fill="rgb(0,0,0)" stroke="none" stroke-width="0" style="stroke-linecap:round;stroke-linejoin:round;"
          points="510.24,85.04 538.58,85.04 538.58,113.39 510.24,113.39 510.24,85.04" />
<polygon fill="rgb(0,0,0)" stroke="none" stroke-width="0" style="stroke-linecap:round;stroke-linejoin:round;"
          points="510.24,56.69 538.58,56.69 538.58,85.04 510.24,85.04 510.24,56.69" />
<polygon fill="rgb(0,0,0)" stroke="none" stroke-width="0" style="stroke-linecap:round;stroke-linejoin:round;"
          points="510.24,28.35 538.58,28.35 538.58,56.69 510.24,56.69 510.24,28.35" />
<polygon fill="rgb(0,0,0)" stroke="none" stroke-width="0" style="stroke-linecap:round;stroke-linejoin:round;"
          points="538.58,453.54 566.93,453.54 566.93,481.89 538.58,481.89 538.58,453.54" />
<polygon fill="rgb(0,0,0)" stroke="none" stroke-width="0" style="stroke-linecap:round;stroke-linejoin:round;"
          points="538.58,425.2 566.93,425.2 566.93,453.54 538.58,453.54 538.58,425.2" />
<polygon fill="rgb(0,0,0)" stroke="none" stroke-width="0" style="stroke-linecap:round;stroke-linejoin:round;"
          points="538.58,396.85 566.93,396.85 566.93,425.2 538.58,425.2 538.58,396.85" />
<polygon fill="rgb(0,0,0)" stroke="none" stroke-width="0" style="stroke-linecap:round;stroke-linejoin:round;"
          points="538.58,368.5 566.93,368.5 566.93,396.85 538.58,396.85 538.58,368.5" />
<polygon fill="rgb(0,0,0)" stroke="none" stroke-width="0" style="stroke-linecap:round;stroke-linejoin:round;"
          points="538.58,340.16 566.93,340.16 566.93,368.5 538.58,368.5 538.58,340.16" />
<polygon fill="rgb(0,0,0)" stroke="none" stroke-width="0" style="stroke-linecap:round;stroke-linejoin:round;"
          points="538.58,311.81 566.93,311.81 566.93,340.16 538.58,340.16 538.58,311.81" />
<polygon fill="rgb(0,0,0)" stroke="none" stroke-width="0" style="stroke-linecap:round;stroke-linejoin:round;"
          points="538.58,283.46 566.93,283.46 566.93,311.81 538.58,311.81 538.58,283.46" />
<polygon fill="rgb(0,0,0)" stroke="none" stroke-width="0" style="stroke-linecap:round;stroke-linejoin:round;"
          points="538.58,255.12 566.93,255.12 566.93,283.46 538.58,283.46 538.58,255.12" />
<polygon fill="rgb(0,0,0)" stroke="none" stroke-width="0" style="stroke-linecap:round;stroke-linejoin:round;"
          points="538.58,226.77 566.93,226.77 566.93,255.12 538.58,255.12 538.58,226.77" />
<polygon fill="rgb(0,0,0)" stroke="none" stroke-width="0" style="stroke-linecap:round;stroke-linejoin:round;"
          points="538.58,198.43 566.93,198.43 566.93,226.77 538.58,226.77 538.58,198.43" />
<polygon fill="rgb(0,0,0)" stroke="none" stroke-width="0" style="stroke-linecap:round;stroke-linejoin:round;"
          points="538.58,170.08 566.93,170.08 566.93,198.43 538.58,198.43 538.58,170.08" />
<polygon fill="rgb(0,0,0)" stroke="none" stroke-width="0" style="stroke-linecap:round;stroke-linejoin:round;"
          points="538.58,141.73 566.93,141.73 566.93,170.08 538.58,170.08 538.58,141.73" />
<polygon fill="rgb(0,0,0)" stroke="none" stroke-width="0" style="stroke-linecap:round;stroke-linejoin:round;"
          points="538.58,113.39 566.93,113.39 566.93,141.73 538.58,141.73 538.58,113.39" />
<polygon fill="rgb(0,0,0)" stroke="none" stroke-width="0" style="stroke-linecap:round;stroke-linejoin:round;"
          points="538.58,85.04 566.93,85.04 566.93,113.39 538.58,113.39 538.58,85.04" />
<polygon fill="rgb(0,0,0)" stroke="none" stroke-width="0" style="stroke-linecap:round;stroke-linejoin:round;"
          points="566.93,368.5 595.28,368.5 595.28,396.85 566.93,396.85 566.93,368.5" />
<polygon fill="rgb(0,0,0)" stroke="none" stroke-width="0" style="stroke-linecap:round;stroke-linejoin:round;"
          points="566.93,340.16 595.28,340.16 595.28,368.5 566.93,368.5 566.93,340.16" />
<polygon fill="rgb(0,0,0)" stroke="none" stroke-width="0" style="stroke-linecap:round;stroke-linejoin:round;"
          points="566.93,311.81 595.28,311.81 595.28,340.16 566.93,340.16 566.93,311.81" />
<polygon fill="rgb(0,0,0)" stroke="none" stroke-width="0" style="stroke-linecap:round;stroke-linejoin:round;"
          points="566.93,283.46 595.28,283.46 595.28,311.81 566.93,311.81 566.93,283.46" />
<polygon fill="rgb(0,0,0)" stroke="none" stroke-width="0" style="stroke-linecap:round;stroke-linejoin:round;"
          points="566.93,255.12 595.28,255.12 595.28,283.46 566.93,283.46 566.93,255.12" />
<polygon fill="rgb(0,0,0)" stroke="none" stroke-width="0" style="stroke-linecap:round;stroke-linejoin:round;"
          points="566.93,226.77 595.28,226.77 595.28,255.12 566.93,255.12 566.93,226.77" />
<polygon fill="rgb(0,0,0)" stroke="none" stroke-width="0" style="stroke-linecap:round;stroke-linejoin:round;"
          points="566.93,198.43 595.28,198.43 595.28,226.77 566.93,226.77 566.93,198.43" />
<polygon fill="rgb(0,0,0)" stroke="none" stroke-width="0" style="stroke-linecap:round;stroke-linejoin:round;"
          points="566.93,170.08 595.28,170.08 595.28,198.43 566.93,198.43 566.93,170.08" />
<polygon fill="rgb(0,0,0)" stroke="none" stroke-width="0" style="stroke-linecap:round;stroke-linejoin:round;"
          points="566.93,141.73 595.28,141.73 595.28,170.08 566.93,170.08 566.93,141.73" />
<polygon fill="rgb(0,0,0)" stroke="none" stroke-width="0" style="stroke-linecap:round;stroke-linejoin:round;"
          points="566.93,113.39 595.28,113.39 595.28,141.73 566.93,141.73 566.93,113.39" />
<polygon fill="rgb(0,0,0)" stroke="none" stroke-width="0" style="stroke-linecap:round;stroke-linejoin:round;"
          points="595.28,368.5 623.62,368.5 623.62,396.85 595.28,396.85 595.28,368.5" />
<polygon fill="rgb(0,0,0)" stroke="none" stroke-width="0" style="stroke-linecap:round;stroke-linejoin:round;"
          points="595.28,283.46 623.62,283.46 623.62,311.81 595.28,311.81 595.28,283.46" />
<polygon fill="rgb(0,0,0)" stroke="none" stroke-width="0" style="stroke-linecap:round;stroke-linejoin:round;"
          points="595.28,255.12 623.62,255.12 623.62,283.46 595.28,283.46 595.28,255.12" />
<polygon fill="rgb(0,0,0)" stroke="none" stroke-width="0" style="stroke-linecap:round;stroke-linejoin:round;"
          points="595.28,226.77 623.62,226.77 623.62,255.12 595.28,255.12 595.28,226.77" />
<polygon fill="rgb(0,0,0)" stroke="none" stroke-width="0" style="stroke-linecap:round;stroke-linejoin:round;"
          points="595.28,170.08 623.62,170.08 623.62,198.43 595.28,198.43 595.28,170.08" />
<polygon fill="rgb(0,0,0)" stroke="none" stroke-width="0" style="stroke-linecap:round;stroke-linejoin:round;"
          points="595.28,141.73 623.62,141.73 623.62,170.08 595.28,170.08 595.28,141.73" />
</svg>
