<?xml version="1.0" encoding="ISO-8859-1" standalone="no"?>
<!DOCTYPE svg PUBLIC "-//W3C//DTD SVG 1.1//EN"
 "http://www.w3.org/Graphics/SVG/1.1/DTD/svg11.dtd">
<svg width="232mm" height="230mm" 
     viewBox="0 0 657.638 651.969" 
     xmlns="http://www.w3.org/2000/svg" version="1.1" xmlns:xlink="http://www.w3.org/1999/xlink" >
<desc>output.svg, created with the Board library (Copyleft) 2007 Sebastien Fourey</desc>
<line x1="272.13" y1="651.97" x2="0" y2="289.13" fill="none" stroke="rgb(0,0,0)" stroke-width="0.031mm" style="stroke-linecap:butt;stroke-linejoin:miter;stroke-dasharray:1,1;stroke-dashoffset:0" />
<line x1="294.8" y1="634.96" x2="22.68" y2="272.13" fill="none" stroke="rgb(0,0,0)" stroke-width="0.031mm" style="stroke-linecap:butt;stroke-linejoin:miter;stroke-dasharray:1,1;stroke-dashoffset:0" />
<line x1="317.48" y1="617.95" x2="45.35" y2="255.12" fill="none" stroke="rgb(0,0,0)" stroke-width="0.031mm" style="stroke-linecap:butt;stroke-linejoin:miter;stroke-dasharray:1,1;stroke-dashoffset:0" />
<line x1="340.16" y1="600.94" x2="68.03" y2="238.11" fill="none" stroke="rgb(0,0,0)" stroke-width="0.031mm" style="stroke-linecap:butt;stroke-linejoin:miter;stroke-dasharray:1,1;stroke-dashoffset:0" />
<line x1="362.83" y1="583.94" x2="90.71" y2="221.1" fill="none" stroke="rgb(0,0,0)" stroke-width="0.031mm" style="stroke-linecap:butt;stroke-linejoin:miter;stroke-dasharray:1,1;stroke-dashoffset:0" />
<line x1="385.51" y1="566.93" x2="113.39" y2="204.09" fill="none" stroke="rgb(0,0,0)" stroke-width="0.031mm" style="stroke-linecap:butt;stroke-linejoin:miter;stroke-dasharray:1,1;stroke-dashoffset:0" />
<line x1="408.19" y1="549.92" x2="136.06" y2="187.09" fill="none" stroke="rgb(0,0,0)" stroke-width="0.031mm" style="stroke-linecap:butt;stroke-linejoin:miter;stroke-dasharray:1,1;stroke-dashoffset:0" />
<line x1="430.87" y1="532.91" x2="158.74" y2="170.08" fill="none" stroke="rgb(0,0,0)" stroke-width="0.031mm" style="stroke-linecap:butt;stroke-linejoin:miter;stroke-dasharray:1,1;stroke-dashoffset:0" />
<line x1="453.54" y1="515.91" x2="181.42" y2="153.07" fill="none" stroke="rgb(0,0,0)" stroke-width="0.031mm" style="stroke-linecap:butt;stroke-linejoin:miter;stroke-dasharray:1,1;stroke-dashoffset:0" />
<line x1="476.22" y1="498.9" x2="204.09" y2="136.06" fill="none" stroke="rgb(0,0,0)" stroke-width="0.031mm" style="stroke-linecap:butt;stroke-linejoin:miter;stroke-dasharray:1,1;stroke-dashoffset:0" />
<line x1="498.9" y1="481.89" x2="226.77" y2="119.06" fill="none" stroke="rgb(0,0,0)" stroke-width="0.031mm" style="stroke-linecap:butt;stroke-linejoin:miter;stroke-dasharray:1,1;stroke-dashoffset:0" />
<line x1="521.57" y1="464.88" x2="249.45" y2="102.05" fill="none" stroke="rgb(0,0,0)" stroke-width="0.031mm" style="stroke-linecap:butt;stroke-linejoin:miter;stroke-dasharray:1,1;stroke-dashoffset:0" />
<line x1="544.25" y1="447.87" x2="272.13" y2="85.04" fill="none" stroke="rgb(0,0,0)" stroke-width="0.031mm" style="stroke-linecap:butt;stroke-linejoin:miter;stroke-dasharray:1,1;stroke-dashoffset:0" />
<line x1="566.93" y1="430.87" x2="294.8" y2="68.03" fill="none" stroke="rgb(0,0,0)" stroke-width="0.031mm" style="stroke-linecap:butt;stroke-linejoin:miter;stroke-dasharray:1,1;stroke-dashoffset:0" />
<line x1="589.61" y1="413.86" x2="317.48" y2="51.02" fill="none" stroke="rgb(0,0,0)" stroke-width="0.031mm" style="stroke-linecap:butt;stroke-linejoin:miter;stroke-dasharray:1,1;stroke-dashoffset:0" />
<line x1="612.28" y1="396.85" x2="340.16" y2="34.02" fill="none" stroke="rgb(0,0,0)" stroke-width="0.031mm" style="stroke-linecap:butt;stroke-linejoin:miter;stroke-dasharray:1,1;stroke-dashoffset:0" />
<line x1="634.96" y1="379.84" x2="362.83" y2="17.01" fill="none" stroke="rgb(0,0,0)" stroke-width="0.031mm" style="stroke-linecap:butt;stroke-linejoin:miter;stroke-dasharray:1,1;stroke-dashoffset:0" />
<line x1="657.64" y1="362.83" x2="385.51" y2="0" fill="none" stroke="rgb(0,0,0)" stroke-width="0.031mm" style="stroke-linecap:butt;stroke-linejoin:miter;stroke-dasharray:1,1;stroke-dashoffset:0" />
<line x1="272.13" y1="651.97" x2="657.64" y2="362.83" fill="none" stroke="rgb(0,0,0)" stroke-width="0.031mm" style="stroke-linecap:butt;stroke-linejoin:miter;stroke-dasharray:1,1;stroke-dashoffset:0" />
<line x1="255.12" y1="629.29" x2="640.63" y2="340.16" fill="none" stroke="rgb(0,0,0)" stroke-width="0.031mm" style="stroke-linecap:butt;stroke-linejoin:miter;stroke-dasharray:1,1;stroke-dashoffset:0" />
<line x1="238.11" y1="606.61" x2="623.62" y2="317.48" fill="none" stroke="rgb(0,0,0)" stroke-width="0.031mm" style="stroke-linecap:butt;stroke-linejoin:miter;stroke-dasharray:1,1;stroke-dashoffset:0" />
<line x1="221.1" y1="583.94" x2="606.61" y2="294.8" fill="none" stroke="rgb(0,0,0)" stroke-width="0.031mm" style="stroke-linecap:butt;stroke-linejoin:miter;stroke-dasharray:1,1;stroke-dashoffset:0" />
<line x1="204.09" y1="561.26" x2="589.61" y2="272.13" fill="none" stroke="rgb(0,0,0)" stroke-width="0.031mm" style="stroke-linecap:butt;stroke-linejoin:miter;stroke-dasharray:1,1;stroke-dashoffset:0" />
<line x1="187.09" y1="538.58" x2="572.6" y2="249.45" fill="none" stroke="rgb(0,0,0)" stroke-width="0.031mm" style="stroke-linecap:butt;stroke-linejoin:miter;stroke-dasharray:1,1;stroke-dashoffset:0" />
<line x1="170.08" y1="515.91" x2="555.59" y2="226.77" fill="none" stroke="rgb(0,0,0)" stroke-width="0.031mm" style="stroke-linecap:butt;stroke-linejoin:miter;stroke-dasharray:1,1;stroke-dashoffset:0" />
<line x1="153.07" y1="493.23" x2="538.58" y2="204.09" fill="none" stroke="rgb(0,0,0)" stroke-width="0.031mm" style="stroke-linecap:butt;stroke-linejoin:miter;stroke-dasharray:1,1;stroke-dashoffset:0" />
<line x1="136.06" y1="470.55" x2="521.57" y2="181.42" fill="none" stroke="rgb(0,0,0)" stroke-width="0.031mm" style="stroke-linecap:butt;stroke-linejoin:miter;stroke-dasharray:1,1;stroke-dashoffset:0" />
<line x1="119.06" y1="447.87" x2="504.57" y2="158.74" fill="none" stroke="rgb(0,0,0)" stroke-width="0.031mm" style="stroke-linecap:butt;stroke-linejoin:miter;stroke-dasharray:1,1;stroke-dashoffset:0" />
<line x1="102.05" y1="425.2" x2="487.56" y2="136.06" fill="none" stroke="rgb(0,0,0)" stroke-width="0.031mm" style="stroke-linecap:butt;stroke-linejoin:miter;stroke-dasharray:1,1;stroke-dashoffset:0" />
<line x1="85.04" y1="402.52" x2="470.55" y2="113.39" fill="none" stroke="rgb(0,0,0)" stroke-width="0.031mm" style="stroke-linecap:butt;stroke-linejoin:miter;stroke-dasharray:1,1;stroke-dashoffset:0" />
<line x1="68.03" y1="379.84" x2="453.54" y2="90.71" fill="none" stroke="rgb(0,0,0)" stroke-width="0.031mm" style="stroke-linecap:butt;stroke-linejoin:miter;stroke-dasharray:1,1;stroke-dashoffset:0" />
<line x1="51.02" y1="357.17" x2="436.54" y2="68.03" fill="none" stroke="rgb(0,0,0)" stroke-width="0.031mm" style="stroke-linecap:butt;stroke-linejoin:miter;stroke-dasharray:1,1;stroke-dashoffset:0" />
<line x1="34.02" y1="334.49" x2="419.53" y2="45.35" fill="none" stroke="rgb(0,0,0)" stroke-width="0.031mm" style="stroke-linecap:butt;stroke-linejoin:miter;stroke-dasharray:1,1;stroke-dashoffset:0" />
<line x1="17.01" y1="311.81" x2="402.52" y2="22.68" fill="none" stroke="rgb(0,0,0)" stroke-width="0.031mm" style="stroke-linecap:butt;stroke-linejoin:miter;stroke-dasharray:1,1;stroke-dashoffset:0" />
<line x1="0" y1="289.13" x2="385.51" y2="0" fill="none" stroke="rgb(0,0,0)" stroke-width="0.031mm" style="stroke-linecap:butt;stroke-linejoin:miter;stroke-dasharray:1,1;stroke-dashoffset:0" />
<polygon fill="rgb(0,0,0)" stroke="none" stroke-width="0" style="stroke-linecap:round;stroke-linejoin:round;"
          points="402.52,447.87 425.2,430.87 442.2,453.54 419.53,470.55 402.52,447.87" />
<polygon fill="rgb(0,0,0)" stroke="none" stroke-width="0" style="stroke-linecap:round;stroke-linejoin:round;"
          points="317.48,476.22 340.16,459.21 357.17,481.89 334.49,498.9 317.48,476.22" />
<polygon fill="rgb(0,0,0)" stroke="none" stroke-width="0" style="stroke-linecap:round;stroke-linejoin:round;"
          points="340.16,459.21 362.83,442.2 379.84,464.88 357.17,481.89 340.16,459.21" />
<polygon fill="rgb(0,0,0)" stroke="none" stroke-width="0" style="stroke-linecap:round;stroke-linejoin:round;"
          points="362.83,442.2 385.51,425.2 402.52,447.87 379.84,464.88 362.83,442.2" />
<polygon fill="rgb(0,0,0)" stroke="none" stroke-width="0" style="stroke-linecap:round;stroke-linejoin:round;"
          points="385.51,425.2 408.19,408.19 425.2,430.87 402.52,447.87 385.51,425.2" />
<polygon fill="rgb(0,0,0)" stroke="none" stroke-width="0" style="stroke-linecap:round;stroke-linejoin:round;"
          points="408.19,408.19 430.87,391.18 447.87,413.86 425.2,430.87 408.19,408.19" />
<polygon fill="rgb(0,0,0)" stroke="none" stroke-width="0" style="stroke-linecap:round;stroke-linejoin:round;"
          points="430.87,391.18 453.54,374.17 470.55,396.85 447.87,413.86 430.87,391.18" />
<polygon fill="rgb(0,0,0)" stroke="none" stroke-width="0" style="stroke-linecap:round;stroke-linejoin:round;"
          points="453.54,374.17 476.22,357.17 493.23,379.84 470.55,396.85 453.54,374.17" />
<polygon fill="rgb(0,0,0)" stroke="none" stroke-width="0" style="stroke-linecap:round;stroke-linejoin:round;"
          points="277.8,470.55 300.47,453.54 317.48,476.22 294.8,493.23 277.8,470.55" />
<polygon fill="rgb(0,0,0)" stroke="none" stroke-width="0" style="stroke-linecap:round;stroke-linejoin:round;"
          points="300.47,453.54 323.15,436.54 340.16,459.21 317.48,476.22 300.47,453.54" />
<polygon fill="rgb(0,0,0)" stroke="none" stroke-width="0" style="stroke-linecap:round;stroke-linejoin:round;"
          points="323.15,436.54 345.83,419.53 362.83,442.2 340.16,459.21 323.15,436.54" />
<polygon fill="rgb(0,0,0)" stroke="none" stroke-width="0" style="stroke-linecap:round;stroke-linejoin:round;"
          points="345.83,419.53 368.5,402.52 385.51,425.2 362.83,442.2 345.83,419.53" />
<polygon fill="rgb(0,0,0)" stroke="none" stroke-width="0" style="stroke-linecap:round;stroke-linejoin:round;"
          points="368.5,402.52 391.18,385.51 408.19,408.19 385.51,425.2 368.5,402.52" />
<polygon fill="rgb(0,0,0)" stroke="none" stroke-width="0" style="stroke-linecap:round;stroke-linejoin:round;"
          points="391.18,385.51 413.86,368.5 430.87,391.18 408.19,408.19 391.18,385.51" />
<polygon fill="rgb(0,0,0)" stroke="none" stroke-width="0" style="stroke-linecap:round;stroke-linejoin:round;"
          points="413.86,368.5 436.54,351.5 453.54,374.17 430.87,391.18 413.86,368.5" />
<polygon fill="rgb(0,0,0)" stroke="none" stroke-width="0" style="stroke-linecap:round;stroke-linejoin:round;"
          points="436.54,351.5 459.21,334.49 476.22,357.17 453.54,374.17 436.54,351.5" />
<polygon fill="rgb(0,0,0)" stroke="none" stroke-width="0" style="stroke-linecap:round;stroke-linejoin:round;"
          points="459.21,334.49 481.89,317.48 498.9,340.16 476.22,357.17 459.21,334.49" />
<polygon fill="rgb(0,0,0)" stroke="none" stroke-width="0" style="stroke-linecap:round;stroke-linejoin:round;"
          points="260.79,447.87 283.46,430.87 300.47,453.54 277.8,470.55 260.79,447.87" />
<polygon fill="rgb(0,0,0)" stroke="none" stroke-width="0" style="stroke-linecap:round;stroke-linejoin:round;"
          points="283.46,430.87 306.14,413.86 323.15,436.54 300.47,453.54 283.46,430.87" />
<polygon fill="rgb(0,0,0)" stroke="none" stroke-width="0" style="stroke-linecap:round;stroke-linejoin:round;"
          points="306.14,413.86 328.82,396.85 345.83,419.53 323.15,436.54 306.14,413.86" />
<polygon fill="rgb(0,0,0)" stroke="none" stroke-width="0" style="stroke-linecap:round;stroke-linejoin:round;"
          points="328.82,396.85 351.5,379.84 368.5,402.52 345.83,419.53 328.82,396.85" />
<polygon fill="rgb(0,0,0)" stroke="none" stroke-width="0" style="stroke-linecap:round;stroke-linejoin:round;"
          points="351.5,379.84 374.17,362.83 391.18,385.51 368.5,402.52 351.5,379.84" />
<polygon fill="rgb(0,0,0)" stroke="none" stroke-width="0" style="stroke-linecap:round;stroke-linejoin:round;"
          points="374.17,362.83 396.85,345.83 413.86,368.5 391.18,385.51 374.17,362.83" />
<polygon fill="rgb(0,0,0)" stroke="none" stroke-width="0" style="stroke-linecap:round;stroke-linejoin:round;"
          points="396.85,345.83 419.53,328.82 436.54,351.5 413.86,368.5 396.85,345.83" />
<polygon fill="rgb(0,0,0)" stroke="none" stroke-width="0" style="stroke-linecap:round;stroke-linejoin:round;"
          points="419.53,328.82 442.2,311.81 459.21,334.49 436.54,351.5 419.53,328.82" />
<polygon fill="rgb(0,0,0)" stroke="none" stroke-width="0" style="stroke-linecap:round;stroke-linejoin:round;"
          points="442.2,311.81 464.88,294.8 481.89,317.48 459.21,334.49 442.2,311.81" />
<polygon fill="rgb(0,0,0)" stroke="none" stroke-width="0" style="stroke-linecap:round;stroke-linejoin:round;"
          points="243.78,425.2 266.46,408.19 283.46,430.87 260.79,447.87 243.78,425.2" />
<polygon fill="rgb(0,0,0)" stroke="none" stroke-width="0" style="stroke-linecap:round;stroke-linejoin:round;"
          points="266.46,408.19 289.13,391.18 306.14,413.86 283.46,430.87 266.46,408.19" />
<polygon fill="rgb(0,0,0)" stroke="none" stroke-width="0" style="stroke-linecap:round;stroke-linejoin:round;"
          points="289.13,391.18 311.81,374.17 328.82,396.85 306.14,413.86 289.13,391.18" />
<polygon fill="rgb(0,0,0)" stroke="none" stroke-width="0" style="stroke-linecap:round;stroke-linejoin:round;"
          points="311.81,374.17 334.49,357.17 351.5,379.84 328.82,396.85 311.81,374.17" />
<polygon fill="rgb(0,0,0)" stroke="none" stroke-width="0" style="stroke-linecap:round;stroke-linejoin:round;"
          points="334.49,357.17 357.17,340.16 374.17,362.83 351.5,379.84 334.49,357.17" />
<polygon fill="rgb(0,0,0)" stroke="none" stroke-width="0" style="stroke-linecap:round;stroke-linejoin:round;"
          points="357.17,340.16 379.84,323.15 396.85,345.83 374.17,362.83 357.17,340.16" />
<polygon fill="rgb(0,0,0)" stroke="none" stroke-width="0" style="stroke-linecap:round;stroke-linejoin:round;"
          points="379.84,323.15 402.52,306.14 419.53,328.82 396.85,345.83 379.84,323.15" />
<polygon fill="rgb(0,0,0)" stroke="none" stroke-width="0" style="stroke-linecap:round;stroke-linejoin:round;"
          points="402.52,306.14 425.2,289.13 442.2,311.81 419.53,328.82 402.52,306.14" />
<polygon fill="rgb(0,0,0)" stroke="none" stroke-width="0" style="stroke-linecap:round;stroke-linejoin:round;"
          points="425.2,289.13 447.87,272.13 464.88,294.8 442.2,311.81 425.2,289.13" />
<polygon fill="rgb(0,0,0)" stroke="none" stroke-width="0" style="stroke-linecap:round;stroke-linejoin:round;"
          points="204.09,419.53 226.77,402.52 243.78,425.2 221.1,442.2 204.09,419.53" />
<polygon fill="rgb(0,0,0)" stroke="none" stroke-width="0" style="stroke-linecap:round;stroke-linejoin:round;"
          points="226.77,402.52 249.45,385.51 266.46,408.19 243.78,425.2 226.77,402.52" />
<polygon fill="rgb(0,0,0)" stroke="none" stroke-width="0" style="stroke-linecap:round;stroke-linejoin:round;"
          points="249.45,385.51 272.13,368.5 289.13,391.18 266.46,408.19 249.45,385.51" />
<polygon fill="rgb(0,0,0)" stroke="none" stroke-width="0" style="stroke-linecap:round;stroke-linejoin:round;"
          points="272.13,368.5 294.8,351.5 311.81,374.17 289.13,391.18 272.13,368.5" />
<polygon fill="rgb(0,0,0)" stroke="none" stroke-width="0" style="stroke-linecap:round;stroke-linejoin:round;"
          points="294.8,351.5 317.48,334.49 334.49,357.17 311.81,374.17 294.8,351.5" />
<polygon fill="rgb(0,0,0)" stroke="none" stroke-width="0" style="stroke-linecap:round;stroke-linejoin:round;"
          points="317.48,334.49 340.16,317.48 357.17,340.16 334.49,357.17 317.48,334.49" />
<polygon fill="rgb(0,0,0)" stroke="none" stroke-width="0" style="stroke-linecap:round;stroke-linejoin:round;"
          points="340.16,317.48 362.83,300.47 379.84,323.15 357.17,340.16 340.16,317.48" />
<polygon fill="rgb(0,0,0)" stroke="none" stroke-width="0" style="stroke-linecap:round;stroke-linejoin:round;"
          points="362.83,300.47 385.51,283.46 402.52,306.14 379.84,323.15 362.83,300.47" />
<polygon fill="rgb(0,0,0)" stroke="none" stroke-width="0" style="stroke-linecap:round;stroke-linejoin:round;"
          points="385.51,283.46 408.19,266.46 425.2,289.13 402.52,306.14 385.51,283.46" />
<polygon fill="rgb(0,0,0)" stroke="none" stroke-width="0" style="stroke-linecap:round;stroke-linejoin:round;"
          points="408.19,266.46 430.87,249.45 447.87,272.13 425.2,289.13 408.19,266.46" />
<polygon fill="rgb(0,0,0)" stroke="none" stroke-width="0" style="stroke-linecap:round;stroke-linejoin:round;"
          points="430.87,249.45 453.54,232.44 470.55,255.12 447.87,272.13 430.87,249.45" />
<polygon fill="rgb(0,0,0)" stroke="none" stroke-width="0" style="stroke-linecap:round;stroke-linejoin:round;"
          points="209.76,379.84 232.44,362.83 249.45,385.51 226.77,402.52 209.76,379.84" />
<polygon fill="rgb(0,0,0)" stroke="none" stroke-width="0" style="stroke-linecap:round;stroke-linejoin:round;"
          points="232.44,362.83 255.12,345.83 272.13,368.5 249.45,385.51 232.44,362.83" />
<polygon fill="rgb(0,0,0)" stroke="none" stroke-width="0" style="stroke-linecap:round;stroke-linejoin:round;"
          points="255.12,345.83 277.8,328.82 294.8,351.5 272.13,368.5 255.12,345.83" />
<polygon fill="rgb(0,0,0)" stroke="none" stroke-width="0" style="stroke-linecap:round;stroke-linejoin:round;"
          points="277.8,328.82 300.47,311.81 317.48,334.49 294.8,351.5 277.8,328.82" />
<polygon fill="rgb(0,0,0)" stroke="none" stroke-width="0" style="stroke-linecap:round;stroke-linejoin:round;"
          points="300.47,311.81 323.15,294.8 340.16,317.48 317.48,334.49 300.47,311.81" />
<polygon fill="rgb(0,0,0)" stroke="none" stroke-width="0" style="stroke-linecap:round;stroke-linejoin:round;"
          points="323.15,294.8 345.83,277.8 362.83,300.47 340.16,317.48 323.15,294.8" />
<polygon fill="rgb(0,0,0)" stroke="none" stroke-width="0" style="stroke-linecap:round;stroke-linejoin:round;"
          points="345.83,277.8 368.5,260.79 385.51,283.46 362.83,300.47 345.83,277.8" />
<polygon fill="rgb(0,0,0)" stroke="none" stroke-width="0" style="stroke-linecap:round;stroke-linejoin:round;"
          points="368.5,260.79 391.18,243.78 408.19,266.46 385.51,283.46 368.5,260.79" />
<polygon fill="rgb(0,0,0)" stroke="none" stroke-width="0" style="stroke-linecap:round;stroke-linejoin:round;"
          points="391.18,243.78 413.86,226.77 430.87,249.45 408.19,266.46 391.18,243.78" />
<polygon fill="rgb(0,0,0)" stroke="none" stroke-width="0" style="stroke-linecap:round;stroke-linejoin:round;"
          points="192.76,357.17 215.43,340.16 232.44,362.83 209.76,379.84 192.76,357.17" />
<polygon fill="rgb(0,0,0)" stroke="none" stroke-width="0" style="stroke-linecap:round;stroke-linejoin:round;"
          points="215.43,340.16 238.11,323.15 255.12,345.83 232.44,362.83 215.43,340.16" />
<polygon fill="rgb(0,0,0)" stroke="none" stroke-width="0" style="stroke-linecap:round;stroke-linejoin:round;"
          points="238.11,323.15 260.79,306.14 277.8,328.82 255.12,345.83 238.11,323.15" />
<polygon fill="rgb(0,0,0)" stroke="none" stroke-width="0" style="stroke-linecap:round;stroke-linejoin:round;"
          points="260.79,306.14 283.46,289.13 300.47,311.81 277.8,328.82 260.79,306.14" />
<polygon fill="rgb(0,0,0)" stroke="none" stroke-width="0" style="stroke-linecap:round;stroke-linejoin:round;"
          points="283.46,289.13 306.14,272.13 323.15,294.8 300.47,311.81 283.46,289.13" />
<polygon fill="rgb(0,0,0)" stroke="none" stroke-width="0" style="stroke-linecap:round;stroke-linejoin:round;"
          points="306.14,272.13 328.82,255.12 345.83,277.8 323.15,294.8 306.14,272.13" />
<polygon fill="rgb(0,0,0)" stroke="none" stroke-width="0" style="stroke-linecap:round;stroke-linejoin:round;"
          points="328.82,255.12 351.5,238.11 368.5,260.79 345.83,277.8 328.82,255.12" />
<polygon fill="rgb(0,0,0)" stroke="none" stroke-width="0" style="stroke-linecap:round;stroke-linejoin:round;"
          points="351.5,238.11 374.17,221.1 391.18,243.78 368.5,260.79 351.5,238.11" />
<polygon fill="rgb(0,0,0)" stroke="none" stroke-width="0" style="stroke-linecap:round;stroke-linejoin:round;"
          points="374.17,221.1 396.85,204.09 413.86,226.77 391.18,243.78 374.17,221.1" />
<polygon fill="rgb(0,0,0)" stroke="none" stroke-width="0" style="stroke-linecap:round;stroke-linejoin:round;"
          points="175.75,334.49 198.43,317.48 215.43,340.16 192.76,357.17 175.75,334.49" />
<polygon fill="rgb(0,0,0)" stroke="none" stroke-width="0" style="stroke-linecap:round;stroke-linejoin:round;"
          points="198.43,317.48 221.1,300.47 238.11,323.15 215.43,340.16 198.43,317.48" />
<polygon fill="rgb(0,0,0)" stroke="none" stroke-width="0" style="stroke-linecap:round;stroke-linejoin:round;"
          points="221.1,300.47 243.78,283.46 260.79,306.14 238.11,323.15 221.1,300.47" />
<polygon fill="rgb(0,0,0)" stroke="none" stroke-width="0" style="stroke-linecap:round;stroke-linejoin:round;"
          points="243.78,283.46 266.46,266.46 283.46,289.13 260.79,306.14 243.78,283.46" />
<polygon fill="rgb(0,0,0)" stroke="none" stroke-width="0" style="stroke-linecap:round;stroke-linejoin:round;"
          points="266.46,266.46 289.13,249.45 306.14,272.13 283.46,289.13 266.46,266.46" />
<polygon fill="rgb(0,0,0)" stroke="none" stroke-width="0" style="stroke-linecap:round;stroke-linejoin:round;"
          points="289.13,249.45 311.81,232.44 328.82,255.12 306.14,272.13 289.13,249.45" />
<polygon fill="rgb(0,0,0)" stroke="none" stroke-width="0" style="stroke-linecap:round;stroke-linejoin:round;"
          points="311.81,232.44 334.49,215.43 351.5,238.11 328.82,255.12 311.81,232.44" />
<polygon fill="rgb(0,0,0)" stroke="none" stroke-width="0" style="stroke-linecap:round;stroke-linejoin:round;"
          points="334.49,215.43 357.17,198.43 374.17,221.1 351.5,238.11 334.49,215.43" />
<polygon fill="rgb(0,0,0)" stroke="none" stroke-width="0" style="stroke-linecap:round;stroke-linejoin:round;"
          points="357.17,198.43 379.84,181.42 396.85,204.09 374.17,221.1 357.17,198.43" />
<polygon fill="rgb(0,0,0)" stroke="none" stroke-width="0" style="stroke-linecap:round;stroke-linejoin:round;"
          points="181.42,294.8 204.09,277.8 221.1,300.47 198.43,317.48 181.42,294.8" />
<polygon fill="rgb(0,0,0)" stroke="none" stroke-width="0" style="stroke-linecap:round;stroke-linejoin:round;"
          points="204.09,277.8 226.77,260.79 243.78,283.46 221.1,300.47 204.09,277.8" />
<polygon fill="rgb(0,0,0)" stroke="none" stroke-width="0" style="stroke-linecap:round;stroke-linejoin:round;"
          points="226.77,260.79 249.45,243.78 266.46,266.46 243.78,283.46 226.77,260.79" />
<polygon fill="rgb(0,0,0)" stroke="none" stroke-width="0" style="stroke-linecap:round;stroke-linejoin:round;"
          points="249.45,243.78 272.13,226.77 289.13,249.45 266.46,266.46 249.45,243.78" />
<polygon fill="rgb(0,0,0)" stroke="none" stroke-width="0" style="stroke-linecap:round;stroke-linejoin:round;"
          points="272.13,226.77 294.8,209.76 311.81,232.44 289.13,249.45 272.13,226.77" />
<polygon fill="rgb(0,0,0)" stroke="none" stroke-width="0" style="stroke-linecap:round;stroke-linejoin:round;"
          points="294.8,209.76 317.48,192.76 334.49,215.43 311.81,232.44 294.8,209.76" />
<polygon fill="rgb(0,0,0)" stroke="none" stroke-width="0" style="stroke-linecap:round;stroke-linejoin:round;"
          points="317.48,192.76 340.16,175.75 357.17,198.43 334.49,215.43 317.48,192.76" />
<polygon fill="rgb(0,0,0)" stroke="none" stroke-width="0" style="stroke-linecap:round;stroke-linejoin:round;"
          points="232.44,221.1 255.12,204.09 272.13,226.77 249.45,243.78 232.44,221.1" />
</svg>
