<?xml version="1.0" encoding="ISO-8859-1" standalone="no"?>
<!DOCTYPE svg PUBLIC "-//W3C//DTD SVG 1.1//EN"
 "http://www.w3.org/Graphics/SVG/1.1/DTD/svg11.dtd">
<svg width="170mm" height="160mm" 
     viewBox="0 0 481.89 453.543" 
     xmlns="http://www.w3.org/2000/svg" version="1.1" xmlns:xlink="http://www.w3.org/1999/xlink" >
<desc>output.svg, created with the Board library (Copyleft) 2007 Sebastien Fourey</desc>
<line x1="0" y1="453.54" x2="0" y2="0" fill="none" stroke="rgb(0,0,0)" stroke-width="0.039mm" style="stroke-linecap:butt;stroke-linejoin:miter;stroke-dasharray:1,1;stroke-dashoffset:0" />
<line x1="28.35" y1="453.54" x2="28.35" y2="0" fill="none" stroke="rgb(0,0,0)" stroke-width="0.039mm" style="stroke-linecap:butt;stroke-linejoin:miter;stroke-dasharray:1,1;stroke-dashoffset:0" />
<line x1="56.69" y1="453.54" x2="56.69" y2="0" fill="none" stroke="rgb(0,0,0)" stroke-width="0.039mm" style="stroke-linecap:butt;stroke-linejoin:miter;stroke-dasharray:1,1;stroke-dashoffset:0" />
<line x1="85.04" y1="453.54" x2="85.04" y2="0" fill="none" stroke="rgb(0,0,0)" stroke-width="0.039mm" style="stroke-linecap:butt;stroke-linejoin:miter;stroke-dasharray:1,1;stroke-dashoffset:0" />
<line x1="113.39" y1="453.54" x2="113.39" y2="0" fill="none" stroke="rgb(0,0,0)" stroke-width="0.039mm" style="stroke-linecap:butt;stroke-linejoin:miter;stroke-dasharray:1,1;stroke-dashoffset:0" />
<line x1="141.73" y1="453.54" x2="141.73" y2="0" fill="none" stroke="rgb(0,0,0)" stroke-width="0.039mm" style="stroke-linecap:butt;stroke-linejoin:miter;stroke-dasharray:1,1;stroke-dashoffset:0" />
<line x1="170.08" y1="453.54" x2="170.08" y2="0" fill="none" stroke="rgb(0,0,0)" stroke-width="0.039mm" style="stroke-linecap:butt;stroke-linejoin:miter;stroke-dasharray:1,1;stroke-dashoffset:0" />
<line x1="198.43" y1="453.54" x2="198.43" y2="0" fill="none" stroke="rgb(0,0,0)" stroke-width="0.039mm" style="stroke-linecap:butt;stroke-linejoin:miter;stroke-dasharray:1,1;stroke-dashoffset:0" />
<line x1="226.77" y1="453.54" x2="226.77" y2="0" fill="none" stroke="rgb(0,0,0)" stroke-width="0.039mm" style="stroke-linecap:butt;stroke-linejoin:miter;stroke-dasharray:1,1;stroke-dashoffset:0" />
<line x1="255.12" y1="453.54" x2="255.12" y2="0" fill="none" stroke="rgb(0,0,0)" stroke-width="0.039mm" style="stroke-linecap:butt;stroke-linejoin:miter;stroke-dasharray:1,1;stroke-dashoffset:0" />
<line x1="283.46" y1="453.54" x2="283.46" y2="0" fill="none" stroke="rgb(0,0,0)" stroke-width="0.039mm" style="stroke-linecap:butt;stroke-linejoin:miter;stroke-dasharray:1,1;stroke-dashoffset:0" />
<line x1="311.81" y1="453.54" x2="311.81" y2="0" fill="none" stroke="rgb(0,0,0)" stroke-width="0.039mm" style="stroke-linecap:butt;stroke-linejoin:miter;stroke-dasharray:1,1;stroke-dashoffset:0" />
<line x1="340.16" y1="453.54" x2="340.16" y2="0" fill="none" stroke="rgb(0,0,0)" stroke-width="0.039mm" style="stroke-linecap:butt;stroke-linejoin:miter;stroke-dasharray:1,1;stroke-dashoffset:0" />
<line x1="368.5" y1="453.54" x2="368.5" y2="0" fill="none" stroke="rgb(0,0,0)" stroke-width="0.039mm" style="stroke-linecap:butt;stroke-linejoin:miter;stroke-dasharray:1,1;stroke-dashoffset:0" />
<line x1="396.85" y1="453.54" x2="396.85" y2="0" fill="none" stroke="rgb(0,0,0)" stroke-width="0.039mm" style="stroke-linecap:butt;stroke-linejoin:miter;stroke-dasharray:1,1;stroke-dashoffset:0" />
<line x1="425.2" y1="453.54" x2="425.2" y2="0" fill="none" stroke="rgb(0,0,0)" stroke-width="0.039mm" style="stroke-linecap:butt;stroke-linejoin:miter;stroke-dasharray:1,1;stroke-dashoffset:0" />
<line x1="453.54" y1="453.54" x2="453.54" y2="0" fill="none" stroke="rgb(0,0,0)" stroke-width="0.039mm" style="stroke-linecap:butt;stroke-linejoin:miter;stroke-dasharray:1,1;stroke-dashoffset:0" />
<line x1="481.89" y1="453.54" x2="481.89" y2="0" fill="none" stroke="rgb(0,0,0)" stroke-width="0.039mm" style="stroke-linecap:butt;stroke-linejoin:miter;stroke-dasharray:1,1;stroke-dashoffset:0" />
<line x1="0" y1="453.54" x2="481.89" y2="453.54" fill="none" stroke="rgb(0,0,0)" stroke-width="0.039mm" style="stroke-linecap:butt;stroke-linejoin:miter;stroke-dasharray:1,1;stroke-dashoffset:0" />
<line x1="0" y1="425.2" x2="481.89" y2="425.2" fill="none" stroke="rgb(0,0,0)" stroke-width="0.039mm" style="stroke-linecap:butt;stroke-linejoin:miter;stroke-dasharray:1,1;stroke-dashoffset:0" />
<line x1="0" y1="396.85" x2="481.89" y2="396.85" fill="none" stroke="rgb(0,0,0)" stroke-width="0.039mm" style="stroke-linecap:butt;stroke-linejoin:miter;stroke-dasharray:1,1;stroke-dashoffset:0" />
<line x1="0" y1="368.5" x2="481.89" y2="368.5" fill="none" stroke="rgb(0,0,0)" stroke-width="0.039mm" style="stroke-linecap:butt;stroke-linejoin:miter;stroke-dasharray:1,1;stroke-dashoffset:0" />
<line x1="0" y1="340.16" x2="481.89" y2="340.16" fill="none" stroke="rgb(0,0,0)" stroke-width="0.039mm" style="stroke-linecap:butt;stroke-linejoin:miter;stroke-dasharray:1,1;stroke-dashoffset:0" />
<line x1="0" y1="311.81" x2="481.89" y2="311.81" fill="none" stroke="rgb(0,0,0)" stroke-width="0.039mm" style="stroke-linecap:butt;stroke-linejoin:miter;stroke-dasharray:1,1;stroke-dashoffset:0" />
<line x1="0" y1="283.46" x2="481.89" y2="283.46" fill="none" stroke="rgb(0,0,0)" stroke-width="0.039mm" style="stroke-linecap:butt;stroke-linejoin:miter;stroke-dasharray:1,1;stroke-dashoffset:0" />
<line x1="0" y1="255.12" x2="481.89" y2="255.12" fill="none" stroke="rgb(0,0,0)" stroke-width="0.039mm" style="stroke-linecap:butt;stroke-linejoin:miter;stroke-dasharray:1,1;stroke-dashoffset:0" />
<line x1="0" y1="226.77" x2="481.89" y2="226.77" fill="none" stroke="rgb(0,0,0)" stroke-width="0.039mm" style="stroke-linecap:butt;stroke-linejoin:miter;stroke-dasharray:1,1;stroke-dashoffset:0" />
<line x1="0" y1="198.43" x2="481.89" y2="198.43" fill="none" stroke="rgb(0,0,0)" stroke-width="0.039mm" style="stroke-linecap:butt;stroke-linejoin:miter;stroke-dasharray:1,1;stroke-dashoffset:0" />
<line x1="0" y1="170.08" x2="481.89" y2="170.08" fill="none" stroke="rgb(0,0,0)" stroke-width="0.039mm" style="stroke-linecap:butt;stroke-linejoin:miter;stroke-dasharray:1,1;stroke-dashoffset:0" />
<line x1="0" y1="141.73" x2="481.89" y2="141.73" fill="none" stroke="rgb(0,0,0)" stroke-width="0.039mm" style="stroke-linecap:butt;stroke-linejoin:miter;stroke-dasharray:1,1;stroke-dashoffset:0" />
<line x1="0" y1="113.39" x2="481.89" y2="113.39" fill="none" stroke="rgb(0,0,0)" stroke-width="0.039mm" style="stroke-linecap:butt;stroke-linejoin:miter;stroke-dasharray:1,1;stroke-dashoffset:0" />
<line x1="0" y1="85.04" x2="481.89" y2="85.04" fill="none" stroke="rgb(0,0,0)" stroke-width="0.039mm" style="stroke-linecap:butt;stroke-linejoin:miter;stroke-dasharray:1,1;stroke-dashoffset:0" />
<line x1="0" y1="56.69" x2="481.89" y2="56.69" fill="none" stroke="rgb(0,0,0)" stroke-width="0.039mm" style="stroke-linecap:butt;stroke-linejoin:miter;stroke-dasharray:1,1;stroke-dashoffset:0" />
<line x1="0" y1="28.35" x2="481.89" y2="28.35" fill="none" stroke="rgb(0,0,0)" stroke-width="0.039mm" style="stroke-linecap:butt;stroke-linejoin:miter;stroke-dasharray:1,1;stroke-dashoffset:0" />
<line x1="0" y1="0" x2="481.89" y2="0" fill="none" stroke="rgb(0,0,0)" stroke-width="0.039mm" style="stroke-linecap:butt;stroke-linejoin:miter;stroke-dasharray:1,1;stroke-dashoffset:0" />
<polygon fill="rgb(0,0,0)" stroke="none" stroke-width="0" style="stroke-linecap:round;stroke-linejoin:round;"
          points="226.77,368.5 255.12,368.5 255.12,396.85 226.77,396.85 226.77,368.5" />
<polygon fill="rgb(0,0,0)" stroke="none" stroke-width="0" style="stroke-linecap:round;stroke-linejoin:round;"
          points="141.73,340.16 170.08,340.16 170.08,368.5 141.73,368.5 141.73,340.16" />
<polygon fill="rgb(0,0,0)" stroke="none" stroke-width="0" style="stroke-linecap:round;stroke-linejoin:round;"
          points="170.08,340.16 198.43,340.16 198.43,368.5 170.08,368.5 170.08,340.16" />
<polygon fill="rgb(0,0,0)" stroke="none" stroke-width="0" style="stroke-linecap:round;stroke-linejoin:round;"
          points="198.43,340.16 226.77,340.16 226.77,368.5 198.43,368.5 198.43,340.16" />
<polygon fill="rgb(0,0,0)" stroke="none" stroke-width="0" style="stroke-linecap:round;stroke-linejoin:round;"
          points="226.77,340.16 255.12,340.16 255.12,368.5 226.77,368.5 226.77,340.16" />
<polygon fill="rgb(0,0,0)" stroke="none" stroke-width="0" style="stroke-linecap:round;stroke-linejoin:round;"
          points="255.12,340.16 283.46,340.16 283.46,368.5 255.12,368.5 255.12,340.16" />
<polygon fill="rgb(0,0,0)" stroke="none" stroke-width="0" style="stroke-linecap:round;stroke-linejoin:round;"
          points="283.46,340.16 311.81,340.16 311.81,368.5 283.46,368.5 283.46,340.16" />
<polygon fill="rgb(0,0,0)" stroke="none" stroke-width="0" style="stroke-linecap:round;stroke-linejoin:round;"
          points="311.81,340.16 340.16,340.16 340.16,368.5 311.81,368.5 311.81,340.16" />
<polygon fill="rgb(0,0,0)" stroke="none" stroke-width="0" style="stroke-linecap:round;stroke-linejoin:round;"
          points="113.39,311.81 141.73,311.81 141.73,340.16 113.39,340.16 113.39,311.81" />
<polygon fill="rgb(0,0,0)" stroke="none" stroke-width="0" style="stroke-linecap:round;stroke-linejoin:round;"
          points="141.73,311.81 170.08,311.81 170.08,340.16 141.73,340.16 141.73,311.81" />
<polygon fill="rgb(0,0,0)" stroke="none" stroke-width="0" style="stroke-linecap:round;stroke-linejoin:round;"
          points="170.08,311.81 198.43,311.81 198.43,340.16 170.08,340.16 170.08,311.81" />
<polygon fill="rgb(0,0,0)" stroke="none" stroke-width="0" style="stroke-linecap:round;stroke-linejoin:round;"
          points="198.43,311.81 226.77,311.81 226.77,340.16 198.43,340.16 198.43,311.81" />
<polygon fill="rgb(0,0,0)" stroke="none" stroke-width="0" style="stroke-linecap:round;stroke-linejoin:round;"
          points="226.77,311.81 255.12,311.81 255.12,340.16 226.77,340.16 226.77,311.81" />
<polygon fill="rgb(0,0,0)" stroke="none" stroke-width="0" style="stroke-linecap:round;stroke-linejoin:round;"
          points="255.12,311.81 283.46,311.81 283.46,340.16 255.12,340.16 255.12,311.81" />
<polygon fill="rgb(0,0,0)" stroke="none" stroke-width="0" style="stroke-linecap:round;stroke-linejoin:round;"
          points="283.46,311.81 311.81,311.81 311.81,340.16 283.46,340.16 283.46,311.81" />
<polygon fill="rgb(0,0,0)" stroke="none" stroke-width="0" style="stroke-linecap:round;stroke-linejoin:round;"
          points="311.81,311.81 340.16,311.81 340.16,340.16 311.81,340.16 311.81,311.81" />
<polygon fill="rgb(0,0,0)" stroke="none" stroke-width="0" style="stroke-linecap:round;stroke-linejoin:round;"
          points="340.16,311.81 368.5,311.81 368.5,340.16 340.16,340.16 340.16,311.81" />
<polygon fill="rgb(0,0,0)" stroke="none" stroke-width="0" style="stroke-linecap:round;stroke-linejoin:round;"
          points="113.39,283.46 141.73,283.46 141.73,311.81 113.39,311.81 113.39,283.46" />
<polygon fill="rgb(0,0,0)" stroke="none" stroke-width="0" style="stroke-linecap:round;stroke-linejoin:round;"
          points="141.73,283.46 170.08,283.46 170.08,311.81 141.73,311.81 141.73,283.46" />
<polygon fill="rgb(0,0,0)" stroke="none" stroke-width="0" style="stroke-linecap:round;stroke-linejoin:round;"
          points="170.08,283.46 198.43,283.46 198.43,311.81 170.08,311.81 170.08,283.46" />
<polygon fill="rgb(0,0,0)" stroke="none" stroke-width="0" style="stroke-linecap:round;stroke-linejoin:round;"
          points="198.43,283.46 226.77,283.46 226.77,311.81 198.43,311.81 198.43,283.46" />
<polygon fill="rgb(0,0,0)" stroke="none" stroke-width="0" style="stroke-linecap:round;stroke-linejoin:round;"
          points="226.77,283.46 255.12,283.46 255.12,311.81 226.77,311.81 226.77,283.46" />
<polygon fill="rgb(0,0,0)" stroke="none" stroke-width="0" style="stroke-linecap:round;stroke-linejoin:round;"
          points="255.12,283.46 283.46,283.46 283.46,311.81 255.12,311.81 255.12,283.46" />
<polygon fill="rgb(0,0,0)" stroke="none" stroke-width="0" style="stroke-linecap:round;stroke-linejoin:round;"
          points="283.46,283.46 311.81,283.46 311.81,311.81 283.46,311.81 283.46,283.46" />
<polygon fill="rgb(0,0,0)" stroke="none" stroke-width="0" style="stroke-linecap:round;stroke-linejoin:round;"
          points="311.81,283.46 340.16,283.46 340.16,311.81 311.81,311.81 311.81,283.46" />
<polygon fill="rgb(0,0,0)" stroke="none" stroke-width="0" style="stroke-linecap:round;stroke-linejoin:round;"
          points="340.16,283.46 368.5,283.46 368.5,311.81 340.16,311.81 340.16,283.46" />
<polygon fill="rgb(0,0,0)" stroke="none" stroke-width="0" style="stroke-linecap:round;stroke-linejoin:round;"
          points="113.39,255.12 141.73,255.12 141.73,283.46 113.39,283.46 113.39,255.12" />
<polygon fill="rgb(0,0,0)" stroke="none" stroke-width="0" style="stroke-linecap:round;stroke-linejoin:round;"
          points="141.73,255.12 170.08,255.12 170.08,283.46 141.73,283.46 141.73,255.12" />
<polygon fill="rgb(0,0,0)" stroke="none" stroke-width="0" style="stroke-linecap:round;stroke-linejoin:round;"
          points="170.08,255.12 198.43,255.12 198.43,283.46 170.08,283.46 170.08,255.12" />
<polygon fill="rgb(0,0,0)" stroke="none" stroke-width="0" style="stroke-linecap:round;stroke-linejoin:round;"
          points="198.43,255.12 226.77,255.12 226.77,283.46 198.43,283.46 198.43,255.12" />
<polygon fill="rgb(0,0,0)" stroke="none" stroke-width="0" style="stroke-linecap:round;stroke-linejoin:round;"
          points="226.77,255.12 255.12,255.12 255.12,283.46 226.77,283.46 226.77,255.12" />
<polygon fill="rgb(0,0,0)" stroke="none" stroke-width="0" style="stroke-linecap:round;stroke-linejoin:round;"
          points="255.12,255.12 283.46,255.12 283.46,283.46 255.12,283.46 255.12,255.12" />
<polygon fill="rgb(0,0,0)" stroke="none" stroke-width="0" style="stroke-linecap:round;stroke-linejoin:round;"
          points="283.46,255.12 311.81,255.12 311.81,283.46 283.46,283.46 283.46,255.12" />
<polygon fill="rgb(0,0,0)" stroke="none" stroke-width="0" style="stroke-linecap:round;stroke-linejoin:round;"
          points="311.81,255.12 340.16,255.12 340.16,283.46 311.81,283.46 311.81,255.12" />
<polygon fill="rgb(0,0,0)" stroke="none" stroke-width="0" style="stroke-linecap:round;stroke-linejoin:round;"
          points="340.16,255.12 368.5,255.12 368.5,283.46 340.16,283.46 340.16,255.12" />
<polygon fill="rgb(0,0,0)" stroke="none" stroke-width="0" style="stroke-linecap:round;stroke-linejoin:round;"
          points="85.04,226.77 113.39,226.77 113.39,255.12 85.04,255.12 85.04,226.77" />
<polygon fill="rgb(0,0,0)" stroke="none" stroke-width="0" style="stroke-linecap:round;stroke-linejoin:round;"
          points="113.39,226.77 141.73,226.77 141.73,255.12 113.39,255.12 113.39,226.77" />
<polygon fill="rgb(0,0,0)" stroke="none" stroke-width="0" style="stroke-linecap:round;stroke-linejoin:round;"
          points="141.73,226.77 170.08,226.77 170.08,255.12 141.73,255.12 141.73,226.77" />
<polygon fill="rgb(0,0,0)" stroke="none" stroke-width="0" style="stroke-linecap:round;stroke-linejoin:round;"
          points="170.08,226.77 198.43,226.77 198.43,255.12 170.08,255.12 170.08,226.77" />
<polygon fill="rgb(0,0,0)" stroke="none" stroke-width="0" style="stroke-linecap:round;stroke-linejoin:round;"
          points="198.43,226.77 226.77,226.77 226.77,255.12 198.43,255.12 198.43,226.77" />
<polygon fill="rgb(0,0,0)" stroke="none" stroke-width="0" style="stroke-linecap:round;stroke-linejoin:round;"
          points="226.77,226.77 255.12,226.77 255.12,255.12 226.77,255.12 226.77,226.77" />
<polygon fill="rgb(0,0,0)" stroke="none" stroke-width="0" style="stroke-linecap:round;stroke-linejoin:round;"
          points="255.12,226.77 283.46,226.77 283.46,255.12 255.12,255.12 255.12,226.77" />
<polygon fill="rgb(0,0,0)" stroke="none" stroke-width="0" style="stroke-linecap:round;stroke-linejoin:round;"
          points="283.46,226.77 311.81,226.77 311.81,255.12 283.46,255.12 283.46,226.77" />
<polygon fill="rgb(0,0,0)" stroke="none" stroke-width="0" style="stroke-linecap:round;stroke-linejoin:round;"
          points="311.81,226.77 340.16,226.77 340.16,255.12 311.81,255.12 311.81,226.77" />
<polygon fill="rgb(0,0,0)" stroke="none" stroke-width="0" style="stroke-linecap:round;stroke-linejoin:round;"
          points="340.16,226.77 368.5,226.77 368.5,255.12 340.16,255.12 340.16,226.77" />
<polygon fill="rgb(0,0,0)" stroke="none" stroke-width="0" style="stroke-linecap:round;stroke-linejoin:round;"
          points="368.5,226.77 396.85,226.77 396.85,255.12 368.5,255.12 368.5,226.77" />
<polygon fill="rgb(0,0,0)" stroke="none" stroke-width="0" style="stroke-linecap:round;stroke-linejoin:round;"
          points="113.39,198.43 141.73,198.43 141.73,226.77 113.39,226.77 113.39,198.43" />
<polygon fill="rgb(0,0,0)" stroke="none" stroke-width="0" style="stroke-linecap:round;stroke-linejoin:round;"
          points="141.73,198.43 170.08,198.43 170.08,226.77 141.73,226.77 141.73,198.43" />
<polygon fill="rgb(0,0,0)" stroke="none" stroke-width="0" style="stroke-linecap:round;stroke-linejoin:round;"
          points="170.08,198.43 198.43,198.43 198.43,226.77 170.08,226.77 170.08,198.43" />
<polygon fill="rgb(0,0,0)" stroke="none" stroke-width="0" style="stroke-linecap:round;stroke-linejoin:round;"
          points="198.43,198.43 226.77,198.43 226.77,226.77 198.43,226.77 198.43,198.43" />
<polygon fill="rgb(0,0,0)" stroke="none" stroke-width="0" style="stroke-linecap:round;stroke-linejoin:round;"
          points="226.77,198.43 255.12,198.43 255.12,226.77 226.77,226.77 226.77,198.43" />
<polygon fill="rgb(0,0,0)" stroke="none" stroke-width="0" style="stroke-linecap:round;stroke-linejoin:round;"
          points="255.12,198.43 283.46,198.43 283.46,226.77 255.12,226.77 255.12,198.43" />
<polygon fill="rgb(0,0,0)" stroke="none" stroke-width="0" style="stroke-linecap:round;stroke-linejoin:round;"
          points="283.46,198.43 311.81,198.43 311.81,226.77 283.46,226.77 283.46,198.43" />
<polygon fill="rgb(0,0,0)" stroke="none" stroke-width="0" style="stroke-linecap:round;stroke-linejoin:round;"
          points="311.81,198.43 340.16,198.43 340.16,226.77 311.81,226.77 311.81,198.43" />
<polygon fill="rgb(0,0,0)" stroke="none" stroke-width="0" style="stroke-linecap:round;stroke-linejoin:round;"
          points="340.16,198.43 368.5,198.43 368.5,226.77 340.16,226.77 340.16,198.43" />
<polygon fill="rgb(0,0,0)" stroke="none" stroke-width="0" style="stroke-linecap:round;stroke-linejoin:round;"
          points="113.39,170.08 141.73,170.08 141.73,198.43 113.39,198.43 113.39,170.08" />
<polygon fill="rgb(0,0,0)" stroke="none" stroke-width="0" style="stroke-linecap:round;stroke-linejoin:round;"
          points="141.73,170.08 170.08,170.08 170.08,198.43 141.73,198.43 141.73,170.08" />
<polygon fill="rgb(0,0,0)" stroke="none" stroke-width="0" style="stroke-linecap:round;stroke-linejoin:round;"
          points="170.08,170.08 198.43,170.08 198.43,198.43 170.08,198.43 170.08,170.08" />
<polygon fill="rgb(0,0,0)" stroke="none" stroke-width="0" style="stroke-linecap:round;stroke-linejoin:round;"
          points="198.43,170.08 226.77,170.08 226.77,198.43 198.43,198.43 198.43,170.08" />
<polygon fill="rgb(0,0,0)" stroke="none" stroke-width="0" style="stroke-linecap:round;stroke-linejoin:round;"
          points="226.77,170.08 255.12,170.08 255.12,198.43 226.77,198.43 226.77,170.08" />
<polygon fill="rgb(0,0,0)" stroke="none" stroke-width="0" style="stroke-linecap:round;stroke-linejoin:round;"
          points="255.12,170.08 283.46,170.08 283.46,198.43 255.12,198.43 255.12,170.08" />
<polygon fill="rgb(0,0,0)" stroke="none" stroke-width="0" style="stroke-linecap:round;stroke-linejoin:round;"
          points="283.46,170.08 311.81,170.08 311.81,198.43 283.46,198.43 283.46,170.08" />
<polygon fill="rgb(0,0,0)" stroke="none" stroke-width="0" style="stroke-linecap:round;stroke-linejoin:round;"
          points="311.81,170.08 340.16,170.08 340.16,198.43 311.81,198.43 311.81,170.08" />
<polygon fill="rgb(0,0,0)" stroke="none" stroke-width="0" style="stroke-linecap:round;stroke-linejoin:round;"
          points="340.16,170.08 368.5,170.08 368.5,198.43 340.16,198.43 340.16,170.08" />
<polygon fill="rgb(0,0,0)" stroke="none" stroke-width="0" style="stroke-linecap:round;stroke-linejoin:round;"
          points="113.39,141.73 141.73,141.73 141.73,170.08 113.39,170.08 113.39,141.73" />
<polygon fill="rgb(0,0,0)" stroke="none" stroke-width="0" style="stroke-linecap:round;stroke-linejoin:round;"
          points="141.73,141.73 170.08,141.73 170.08,170.08 141.73,170.08 141.73,141.73" />
<polygon fill="rgb(0,0,0)" stroke="none" stroke-width="0" style="stroke-linecap:round;stroke-linejoin:round;"
          points="170.08,141.73 198.43,141.73 198.43,170.08 170.08,170.08 170.08,141.73" />
<polygon fill="rgb(0,0,0)" stroke="none" stroke-width="0" style="stroke-linecap:round;stroke-linejoin:round;"
          points="198.43,141.73 226.77,141.73 226.77,170.08 198.43,170.08 198.43,141.73" />
<polygon fill="rgb(0,0,0)" stroke="none" stroke-width="0" style="stroke-linecap:round;stroke-linejoin:round;"
          points="226.77,141.73 255.12,141.73 255.12,170.08 226.77,170.08 226.77,141.73" />
<polygon fill="rgb(0,0,0)" stroke="none" stroke-width="0" style="stroke-linecap:round;stroke-linejoin:round;"
          points="255.12,141.73 283.46,141.73 283.46,170.08 255.12,170.08 255.12,141.73" />
<polygon fill="rgb(0,0,0)" stroke="none" stroke-width="0" style="stroke-linecap:round;stroke-linejoin:round;"
          points="283.46,141.73 311.81,141.73 311.81,170.08 283.46,170.08 283.46,141.73" />
<polygon fill="rgb(0,0,0)" stroke="none" stroke-width="0" style="stroke-linecap:round;stroke-linejoin:round;"
          points="311.81,141.73 340.16,141.73 340.16,170.08 311.81,170.08 311.81,141.73" />
<polygon fill="rgb(0,0,0)" stroke="none" stroke-width="0" style="stroke-linecap:round;stroke-linejoin:round;"
          points="340.16,141.73 368.5,141.73 368.5,170.08 340.16,170.08 340.16,141.73" />
<polygon fill="rgb(0,0,0)" stroke="none" stroke-width="0" style="stroke-linecap:round;stroke-linejoin:round;"
          points="141.73,113.39 170.08,113.39 170.08,141.73 141.73,141.73 141.73,113.39" />
<polygon fill="rgb(0,0,0)" stroke="none" stroke-width="0" style="stroke-linecap:round;stroke-linejoin:round;"
          points="170.08,113.39 198.43,113.39 198.43,141.73 170.08,141.73 170.08,113.39" />
<polygon fill="rgb(0,0,0)" stroke="none" stroke-width="0" style="stroke-linecap:round;stroke-linejoin:round;"
          points="198.43,113.39 226.77,113.39 226.77,141.73 198.43,141.73 198.43,113.39" />
<polygon fill="rgb(0,0,0)" stroke="none" stroke-width="0" style="stroke-linecap:round;stroke-linejoin:round;"
          points="226.77,113.39 255.12,113.39 255.12,141.73 226.77,141.73 226.77,113.39" />
<polygon fill="rgb(0,0,0)" stroke="none" stroke-width="0" style="stroke-linecap:round;stroke-linejoin:round;"
          points="255.12,113.39 283.46,113.39 283.46,141.73 255.12,141.73 255.12,113.39" />
<polygon fill="rgb(0,0,0)" stroke="none" stroke-width="0" style="stroke-linecap:round;stroke-linejoin:round;"
          points="283.46,113.39 311.81,113.39 311.81,141.73 283.46,141.73 283.46,113.39" />
<polygon fill="rgb(0,0,0)" stroke="none" stroke-width="0" style="stroke-linecap:round;stroke-linejoin:round;"
          points="311.81,113.39 340.16,113.39 340.16,141.73 311.81,141.73 311.81,113.39" />
<polygon fill="rgb(0,0,0)" stroke="none" stroke-width="0" style="stroke-linecap:round;stroke-linejoin:round;"
          points="226.77,85.04 255.12,85.04 255.12,113.39 226.77,113.39 226.77,85.04" />
</svg>
